<svg width="22" height="22" viewBox="0 0 22 22" fill="none" xmlns="http://www.w3.org/2000/svg">
<mask id="mask0_193_1501" style="mask-type:luminance" maskUnits="userSpaceOnUse" x="0" y="0" width="22" height="22">
<path d="M0 0H22V22H0V0Z" fill="white"/>
</mask>
<g mask="url(#mask0_193_1501)">
<path fill-rule="evenodd" clip-rule="evenodd" d="M10.967 -0.00113678C17.0243 -0.00113678 21.9341 4.90868 21.9341 10.9659C21.9341 17.0231 17.0243 21.9329 10.967 21.9329C4.90982 21.9329 0 17.0231 0 10.9659C0 4.90868 4.90982 -0.00113678 10.967 -0.00113678ZM8.08205 9.43551C8.06478 8.33833 10.5778 7.73559 11.7173 8.03696C14.6055 8.80138 10.4255 15.521 11.1491 16.5146C11.5509 17.0671 13.3764 16.6307 13.3764 17.1346C13.3764 17.6368 12.1364 18.9428 10.0253 18.508C7.9141 18.0732 8.48388 16.5978 8.76955 15.408C9.05365 14.2182 10.2764 10.9345 10.2764 10.3647C10.2764 8.57692 8.0538 9.9064 8.08048 9.43394L8.08205 9.43551ZM12.2008 3.33591C13.1112 3.33591 13.8505 4.0752 13.8505 4.98716C13.8505 5.89755 13.1112 6.63685 12.2008 6.63685C11.2888 6.63685 10.5495 5.89755 10.5495 4.98716C10.5495 4.0752 11.2888 3.33591 12.2008 3.33591Z" fill="#858EA9"/>
</g>
</svg>
