<svg width="27" height="17" viewBox="0 0 27 17" fill="none" xmlns="http://www.w3.org/2000/svg">
<mask id="mask0_204_23039" style="mask-type:luminance" maskUnits="userSpaceOnUse" x="7" y="8" width="13" height="9">
<path d="M7.49097 8.18887H19.1574V16.375H7.49097V8.18887Z" fill="white"/>
</mask>
<g mask="url(#mask0_204_23039)">
<path d="M16.9716 8.25017C16.5836 8.25017 15.9925 8.25017 15.3092 8.25017C15.3092 9.42412 14.413 10.3755 13.3064 10.3755C12.2001 10.3755 11.3035 9.42412 11.3035 8.25017C10.6196 8.25017 10.0295 8.25017 9.64148 8.25017C8.16402 8.25017 7.97249 11.3017 7.5105 16.4286H19.1026C18.6386 11.3017 18.4491 8.25017 16.9716 8.25017Z" fill="#858EA9"/>
</g>
<path d="M17.0186 6.54924C16.4678 6.21738 16.2664 5.67491 16.1762 5.04308C15.9282 3.3179 16.4173 0.609062 14.6136 0.727859C12.474 -0.944753 10.8892 0.597148 10.6736 2.03462C10.5471 2.87846 10.5781 3.74893 10.5038 4.60469C10.4381 5.36092 10.3328 6.1161 9.5957 6.5608C12.5869 7.9408 16.6088 7.01987 17.0186 6.54924Z" fill="#858EA9"/>
<path d="M8.75012 7.37486C8.54438 6.9999 8.28614 6.797 7.94303 6.797C7.61743 6.797 7.12076 6.797 6.54814 6.797C6.54814 7.78311 5.79522 8.5814 4.86661 8.5814C3.938 8.5814 3.18408 7.78311 3.18408 6.797C2.60981 6.797 2.11414 6.797 1.78952 6.797C0.548843 6.797 0.388681 9.35901 0 13.6634H6.74628C7.08377 10.1661 7.46057 8.00318 8.75012 7.37486Z" fill="#858EA9"/>
<path d="M7.9826 5.49982C7.51962 5.22053 7.35087 4.76566 7.27491 4.23511C7.06687 2.78713 7.47735 0.512471 5.96291 0.611643C4.16645 -0.792538 2.83662 0.502659 2.65532 1.70885C2.54899 2.41672 2.5754 3.14877 2.51299 3.86646C2.45817 4.50109 2.36934 5.13537 1.75049 5.50858C4.26189 6.66676 7.63949 5.89335 7.9826 5.49982Z" fill="#858EA9"/>
<path d="M24.8244 6.797C24.4988 6.797 24.0028 6.797 23.4295 6.797C23.4295 7.78311 22.6763 8.5814 21.748 8.5814C20.8194 8.5814 20.0665 7.78206 20.0665 6.797C19.4929 6.797 18.9962 6.797 18.6716 6.797C18.3285 6.797 18.0702 6.9999 17.8645 7.37486C19.1541 8.00318 19.5302 10.1671 19.8683 13.6634H26.6146C26.2249 9.35901 26.0641 6.797 24.8244 6.797Z" fill="#858EA9"/>
<path d="M24.8625 5.50844C24.2443 5.13523 24.1548 4.50094 24.1 3.86631C24.0386 3.14757 24.0637 2.41657 23.9576 1.708C23.776 0.501462 22.4462 -0.793384 20.6501 0.610797C19.1356 0.511274 19.5461 2.78628 19.3377 4.23426C19.2621 4.76482 19.0934 5.22038 18.6304 5.49862C18.9745 5.89321 22.3517 6.66661 24.8625 5.50844Z" fill="#858EA9"/>
</svg>
