<svg width="28" height="24" viewBox="0 0 28 24" fill="none" xmlns="http://www.w3.org/2000/svg">
<mask id="mask0_193_1486" style="mask-type:luminance" maskUnits="userSpaceOnUse" x="9" y="0" width="19" height="19">
<path d="M9.55566 0H27.6355V18.173H9.55566V0Z" fill="white"/>
</mask>
<g mask="url(#mask0_193_1486)">
<path d="M25.8568 0H11.6514C10.7054 0 9.93018 0.868725 9.93018 1.96317V12.4277C9.93018 13.5696 10.6397 14.4155 11.566 14.4155H15.0956V17.3973C15.0956 17.5718 15.181 17.7463 15.3321 17.8449C15.4619 17.9189 15.6327 17.9189 15.7838 17.8202L20.0886 14.4155H25.9635C26.8472 14.3909 27.578 13.4956 27.578 12.4277V1.96317C27.578 0.868725 26.8028 0 25.8568 0ZM26.7174 12.4277C26.7174 12.974 26.3084 13.4216 25.9422 13.4216H19.9588C19.8734 13.4216 19.7864 13.4463 19.7223 13.4956L15.9562 16.4527V13.9186C15.9562 13.6454 15.7624 13.4216 15.5259 13.4216H11.566C11.07 13.4216 10.7908 12.9247 10.7908 12.4277V1.96317C10.7908 1.44155 11.1784 0.993913 11.6514 0.993913H25.8568C26.3298 0.993913 26.7174 1.415 26.7174 1.96317V12.4277Z" fill="#858EA9"/>
</g>
<path d="M18.97 3.00637C18.4099 2.93239 17.8712 3.13155 17.4409 3.55264C17.0319 3.97562 16.7954 4.57311 16.7954 5.19335C16.7954 5.46649 16.9892 5.69031 17.2257 5.69031C17.4622 5.69031 17.656 5.46649 17.656 5.19335C17.656 4.84624 17.7858 4.52189 18.001 4.29997C18.2375 4.04959 18.538 3.95096 18.8402 3.97562C19.356 4.04959 19.7222 4.47258 19.7863 5.0454C19.8093 5.31854 19.7649 5.59168 19.6368 5.84015C19.5284 6.01466 19.3773 6.18727 19.2065 6.36177C19.0981 6.48696 18.97 6.61025 18.8616 6.76009C18.4953 7.23239 18.3015 7.82798 18.3015 8.49944V9.44404C18.3015 9.71717 18.4953 9.94099 18.7318 9.94099C18.97 9.94099 19.1621 9.71717 19.1621 9.44404V8.49944C19.1621 8.07646 19.2705 7.72935 19.5071 7.43155C19.5941 7.33102 19.7009 7.20773 19.8093 7.1072C20.0031 6.88338 20.2182 6.65956 20.389 6.38643C20.6272 5.96345 20.7126 5.46649 20.6699 4.96953C20.5828 3.90165 19.8733 3.1069 18.97 3.00637Z" fill="#858EA9"/>
<path d="M19.185 11.4319C19.185 11.4983 19.1735 11.5628 19.1522 11.6235C19.1292 11.6842 19.098 11.7373 19.0586 11.7847C19.0175 11.8302 18.9715 11.8663 18.919 11.8909C18.8664 11.9175 18.8106 11.9288 18.7531 11.9288C18.6972 11.9288 18.6414 11.9175 18.5888 11.8909C18.5363 11.8663 18.4903 11.8302 18.4492 11.7847C18.4098 11.7373 18.3786 11.6842 18.3556 11.6235C18.3343 11.5628 18.3228 11.4983 18.3228 11.4319C18.3228 11.3674 18.3343 11.3029 18.3556 11.2422C18.3786 11.1815 18.4098 11.1284 18.4492 11.081C18.4903 11.0336 18.5363 10.9994 18.5888 10.9729C18.6414 10.9482 18.6972 10.9349 18.7531 10.9349C18.8106 10.9349 18.8664 10.9482 18.919 10.9729C18.9715 10.9994 19.0175 11.0336 19.0586 11.081C19.098 11.1284 19.1292 11.1815 19.1522 11.2422C19.1735 11.3029 19.185 11.3674 19.185 11.4319Z" fill="#858EA9"/>
<mask id="mask1_193_1486" style="mask-type:luminance" maskUnits="userSpaceOnUse" x="0" y="5" width="18" height="19">
<path d="M0 5.54803H17.9648V23.9999H0V5.54803Z" fill="white"/>
</mask>
<g mask="url(#mask1_193_1486)">
<path d="M16.9038 18.118L16.2567 18.6415C16.0415 18.8141 15.7837 18.89 15.5258 18.89C15.3107 18.89 15.1169 18.8387 14.9231 18.7155C14.4927 18.467 14.2349 17.9454 14.2349 17.3972V15.4094H11.5659C10.9205 15.4094 10.339 15.1362 9.90873 14.6639H4.33434C4.09783 14.6639 3.90402 14.4401 3.90402 14.167C3.90402 13.8938 4.09783 13.67 4.33434 13.67H9.28461C9.17621 13.3703 9.0908 13.0232 9.06945 12.6761H4.33434C4.09783 12.6761 3.90402 12.4523 3.90402 12.1773C3.90402 11.9041 4.09783 11.6803 4.33434 11.6803H9.06945V10.6864H4.33434C4.09783 10.6864 3.90402 10.4626 3.90402 10.1894C3.90402 9.9163 4.09783 9.69248 4.33434 9.69248H9.06945V5.96341H1.7508C0.804766 5.96341 0.029541 6.83403 0.029541 7.92847V18.3911C0.029541 19.4609 0.762063 20.3562 1.6654 20.3808H7.519C7.519 20.3808 11.8238 23.7609 11.8451 23.7855C11.9749 23.8842 12.1474 23.9107 12.2968 23.8102C12.4479 23.7362 12.5333 23.5617 12.5333 23.3626V20.3808H16.0629C16.9892 20.3808 17.6988 19.5349 17.6988 18.3911V17.5224L16.9038 18.118ZM13.3726 16.6518H4.33434C4.09783 16.6518 3.90402 16.4279 3.90402 16.1548C3.90402 15.8817 4.09783 15.6578 4.33434 15.6578H13.3726C13.6108 15.6578 13.8046 15.8817 13.8046 16.1548C13.8046 16.4279 13.6108 16.6518 13.3726 16.6518Z" fill="#858EA9"/>
</g>
</svg>
