<svg width="369" height="357" viewBox="0 0 369 357" fill="none" xmlns="http://www.w3.org/2000/svg">
<path d="M290.931 140.949C313.922 212.062 282.176 284.951 220.025 303.75C157.871 322.548 88.8601 280.141 65.8706 209.021C42.8792 137.902 74.6258 65.0213 136.777 46.221C198.93 27.4223 267.941 69.8299 290.931 140.949Z" fill="#FF8969"/>
<path d="M267.158 200.778C264.882 230.387 262.414 262.549 238.8 277.336C207.762 296.779 158.183 274.955 131.873 249.513C83.0446 202.295 87.5539 116.69 118.103 94.5475C134.722 82.4994 157.012 78.593 157.012 78.593C168.701 76.5477 177.752 77.1675 179.767 77.3138C188.876 78.0076 220.158 80.3956 235.168 104.109C245.744 120.821 242.558 139.172 241.101 145.58C244.918 145.801 249.958 146.681 254.618 149.73C269.981 159.756 268.379 184.834 267.158 200.778Z" fill="#A43B37"/>
<mask id="mask0_42_1135" style="mask-type:luminance" maskUnits="userSpaceOnUse" x="29" y="27" width="304" height="294">
<path d="M29.7322 27.7667H332.1V320.859H29.7322V27.7667Z" fill="white"/>
</mask>
<g mask="url(#mask0_42_1135)">
<path d="M180.904 28.0008C97.4142 28.0008 29.7322 93.4715 29.7322 174.235C29.7322 254.999 97.4142 320.47 180.904 320.47C264.393 320.47 332.075 254.999 332.075 174.235C332.066 93.4715 264.386 28.0008 180.904 28.0008ZM218.759 299.836C158.503 318.065 91.581 276.945 69.2997 207.993C47.0095 139.035 77.7862 68.363 138.051 50.1429C198.314 31.9227 265.228 73.0338 287.511 141.986C309.801 210.936 279.015 281.607 218.759 299.836ZM244.185 257.673C244.623 260.314 243.948 262.645 243.317 264.21C242.441 266.714 240.661 267.92 239.608 267.586C238.665 267.292 238.362 265.76 238.302 265.483C238.092 264.284 237.553 262.287 236.12 260.209C234.401 257.706 232.252 256.377 231.105 255.774C229.504 256.344 227.625 256.964 225.552 257.551C225.594 258.52 225.644 259.712 225.653 261.253C225.678 263.151 225.628 263.599 225.443 264.203C224.861 265.947 223.58 267.048 221.297 268.638C217.588 271.205 215.734 272.486 213.88 273.073C212.912 273.375 207.66 275.014 203.194 272.648C202.427 272.242 200.606 271.279 200.573 269.909C200.565 269.608 200.631 268.735 202.966 266.958C205.183 265.279 207.214 264.463 207.331 264.424C209.262 263.658 210.787 262.091 212.034 260.306C211.782 260.338 211.52 260.38 211.251 260.412C204.804 261.154 191.38 261.977 175.704 257.038C168.481 254.762 154.122 250.231 152.588 241.841C151.821 237.676 153.456 233.617 153.456 233.617C154.745 230.413 156.843 228.398 157.989 227.445C154.846 225.447 152.816 223.001 152.36 222.431C141.708 209.257 136.078 195.505 135.784 194.795C134.999 192.864 133.618 189.252 133.391 184.467C133.264 182.102 133.172 179.38 134.485 176.241C135.825 173.029 137.975 170.983 139.281 169.914C129.193 165.448 123.851 158.176 121.836 155.354C120.672 153.724 105.748 132.138 116.384 111.888C126.134 93.3337 153.506 83.3138 172.654 94.377C190.662 104.795 190.974 127.834 190.967 129.194C192.036 129.839 193.36 130.833 194.455 132.358C196.022 134.534 196.706 137.241 196.706 140.183C196.706 142.027 196.435 143.959 195.955 145.906C196.78 145.809 198.921 145.842 201.213 146.698C202.765 147.276 203.843 148.034 204.484 148.507C213.054 154.882 221.491 166.743 221.491 166.743C225.468 172.337 226.016 173.819 226.294 175.392C226.294 175.392 226.596 177.195 226.158 179.934C227.92 179.958 230.557 180.268 232.833 181.94C236.702 184.784 237.266 189.952 237.417 193.743C238.076 211.311 231.063 232.541 227.566 244.002C228.216 242.91 228.459 241.719 229.993 240.586C230.381 240.309 232.344 238.857 234.796 239.322C236.238 239.591 237.216 240.398 237.629 240.798C239.736 242.803 238.766 245.012 239.811 248.812C241.108 253.459 243.528 253.662 244.185 257.673Z" fill="#FFCAB3"/>
</g>
<path d="M171.415 250.768C169.367 250.899 167.301 250.89 165.254 250.735C164.849 250.702 164.849 250.091 165.254 250.124C167.301 250.279 169.358 250.296 171.415 250.157C171.819 250.132 171.819 250.744 171.415 250.768ZM145.365 162.528C145.981 162.268 146.402 161.607 146.132 160.972C145.981 160.614 145.365 160.769 145.525 161.136C145.981 162.212 144.068 162.129 143.452 162.089C142.626 162.031 141.809 161.869 141.033 161.607C139.475 161.086 138.058 160.108 137.165 158.754C136.314 157.467 135.901 155.869 136.204 154.352C136.524 152.763 137.873 151.011 139.761 151.637C140.149 151.768 140.309 151.172 139.93 151.05C138.421 150.553 136.912 151.401 136.163 152.681C135.403 153.977 135.319 155.583 135.691 157.01C136.508 160.14 139.441 162.179 142.644 162.635C143.495 162.733 144.557 162.88 145.365 162.528ZM167.984 173.681C176.85 171.496 184.653 166.206 190.056 159.088C193.047 155.142 195.255 150.675 196.519 145.939C196.62 145.556 196.013 145.393 195.912 145.777C193.705 154.051 188.547 161.485 181.519 166.671C174.068 172.173 164.715 174.781 155.376 174.187C149.815 173.836 144.379 172.361 139.457 169.833C139.096 169.646 138.775 170.176 139.137 170.364C147.91 174.871 158.352 176.054 167.984 173.681ZM182.327 144.243C183.726 143.706 184.84 142.645 185.404 141.3C185.472 141.146 185.336 140.966 185.185 140.925C185.007 140.877 184.865 140.982 184.797 141.137C184.317 142.271 183.331 143.208 182.16 143.656C182 143.714 181.889 143.861 181.941 144.031C181.982 144.179 182.167 144.308 182.327 144.243ZM204.096 269.005C203.582 269.33 203.058 269.658 202.544 269.992C202.291 270.147 202.048 270.308 201.795 270.463C201.567 270.603 201.348 270.708 201.078 270.749C200.911 270.773 200.818 270.978 200.859 271.124C200.911 271.303 201.078 271.36 201.247 271.336C201.829 271.255 202.334 270.856 202.815 270.553C203.345 270.212 203.884 269.876 204.416 269.535C204.753 269.315 204.432 268.785 204.096 269.005ZM190.342 146.445C190.789 147.903 190.755 149.688 189.778 150.961C188.934 152.061 187.233 152.615 186.002 151.751C185.927 151.694 185.884 151.622 185.867 151.548C185.505 151.72 185.126 151.873 184.738 151.988C184.35 152.102 184.181 151.515 184.569 151.401C187.039 150.668 189.02 148.695 189.726 146.29C189.837 145.906 190.443 146.069 190.342 146.445ZM189.929 147.512C189.196 149.086 187.949 150.406 186.406 151.262C187.418 151.899 188.74 151.384 189.365 150.456C189.938 149.599 190.064 148.531 189.929 147.512ZM160.695 148.858C163.164 149.404 165.827 148.996 167.942 147.634C169.915 146.364 171.321 144.374 171.853 142.141C171.945 141.757 171.339 141.595 171.246 141.977C170.175 146.46 165.514 149.306 160.863 148.271C160.468 148.173 160.29 148.767 160.695 148.858ZM143.317 158.061C143.486 158.078 143.637 157.906 143.637 157.752C143.63 157.572 143.495 157.467 143.317 157.443C143.309 157.443 143.301 157.443 143.301 157.443C143.301 157.443 143.301 157.443 143.283 157.443C143.258 157.434 143.224 157.434 143.199 157.425C143.14 157.41 143.091 157.401 143.03 157.384C143.005 157.377 142.98 157.369 142.946 157.36C142.938 157.36 142.93 157.351 142.93 157.351C142.93 157.351 142.93 157.351 142.913 157.344C142.863 157.32 142.811 157.295 142.761 157.27C142.71 157.246 142.66 157.214 142.617 157.181C142.592 157.165 142.567 157.148 142.55 157.133C142.543 157.124 142.543 157.124 142.534 157.124C142.534 157.124 142.534 157.124 142.525 157.115C142.432 157.043 142.349 156.961 142.263 156.871C142.247 156.856 142.229 156.83 142.213 156.806C142.204 156.799 142.197 156.79 142.188 156.773C142.155 156.725 142.121 156.683 142.096 156.635C142.062 156.585 142.037 156.537 142.01 156.489C142.003 156.463 141.986 156.439 141.977 156.415C141.97 156.406 141.97 156.391 141.961 156.382C141.918 156.275 141.893 156.17 141.868 156.064C141.868 156.057 141.85 155.974 141.859 156.007C141.859 156.048 141.859 155.959 141.85 155.95C141.843 155.893 141.843 155.828 141.85 155.771C141.859 155.607 141.699 155.461 141.53 155.461C141.354 155.47 141.219 155.592 141.21 155.771C141.194 156.334 141.43 156.88 141.809 157.303C142.204 157.727 142.744 157.997 143.317 158.061ZM186.146 135.488C188.993 134.967 191.219 132.406 191.294 129.61C191.303 129.22 190.671 129.22 190.662 129.61C190.586 132.146 188.539 134.421 185.977 134.892C185.58 134.967 185.749 135.562 186.146 135.488ZM239.499 263.298C239.339 263.387 239.314 263.566 239.389 263.714C239.928 264.847 240.156 266.094 240.072 267.342C240.047 267.733 240.679 267.733 240.704 267.342C240.797 265.989 240.519 264.636 239.928 263.405C239.862 263.257 239.635 263.217 239.499 263.298ZM240.83 262.409C241.295 263.714 241.523 265.075 241.496 266.461C241.489 266.853 242.121 266.853 242.128 266.461C242.154 265.035 241.927 263.599 241.446 262.246C241.311 261.879 240.695 262.043 240.83 262.409ZM242.348 260.486C242.195 260.526 242.062 260.705 242.128 260.86C242.608 261.986 242.895 263.176 242.962 264.391C242.98 264.782 243.612 264.782 243.596 264.391C243.528 263.119 243.242 261.871 242.743 260.698C242.676 260.543 242.533 260.436 242.348 260.486ZM207.053 270.684C207.155 270.553 207.078 270.341 206.945 270.269C206.785 270.179 206.616 270.243 206.514 270.374C205.765 271.36 204.669 272.094 203.464 272.454C203.076 272.567 203.245 273.163 203.631 273.041C204.998 272.633 206.194 271.801 207.053 270.684ZM243.603 258.708C243.409 258.365 242.861 258.668 243.055 259.018C243.501 259.81 243.704 260.698 243.662 261.602C243.654 261.766 243.815 261.912 243.982 261.912C244.16 261.912 244.286 261.774 244.302 261.602C244.345 260.591 244.101 259.589 243.603 258.708ZM227.516 244.019C225.721 248.461 224.904 253.223 225.105 257.983C225.123 258.374 225.754 258.374 225.737 257.983C225.535 253.262 226.352 248.576 228.13 244.181C228.274 243.814 227.667 243.65 227.516 244.019ZM210.072 270.725C208.874 271.873 207.534 273.163 205.765 273.342C205.359 273.382 205.359 273.994 205.765 273.953C207.728 273.757 209.178 272.436 210.518 271.157C210.805 270.88 210.358 270.448 210.072 270.725ZM212.574 271.229C212.413 271.14 212.244 271.205 212.145 271.336C211.36 272.323 210.331 273.104 209.178 273.643C209.025 273.717 208.984 273.929 209.068 274.058C209.16 274.213 209.345 274.239 209.499 274.165C210.762 273.586 211.849 272.714 212.691 271.646C212.792 271.515 212.709 271.303 212.574 271.229ZM226.605 179.192C223.765 191.722 211.444 198.864 199.781 202.718C196.115 203.934 192.372 204.929 188.639 205.922C189.71 203.755 190.721 201.561 191.657 199.344C191.91 198.748 192.079 197.999 192.559 197.535C193.132 196.98 193.789 196.491 194.38 195.937C195.745 194.656 196.999 193.279 198.188 191.836C198.946 190.915 199.562 190.018 199.738 188.828C199.839 188.167 199.805 187.499 199.697 186.847C199.772 186.831 199.839 186.79 199.882 186.709C201.863 183.481 205.199 181.287 209.009 180.602C209.404 180.528 209.237 179.943 208.84 180.015C208.082 180.155 207.349 180.366 206.641 180.611C204.61 173.95 200.135 168.203 194.042 164.501C193.696 164.29 193.376 164.82 193.721 165.032C199.688 168.65 204.062 174.292 206.043 180.814C203.379 181.874 201.096 183.717 199.537 186.113C199.393 185.583 199.199 185.061 198.973 184.564C198.172 182.778 196.992 181.181 195.794 179.633C194.741 178.254 193.647 176.876 192.28 175.785C189.853 173.845 186.279 172.808 183.651 174.978C181.982 176.355 181.156 178.409 181.35 180.513C180.179 180.342 178.982 180.528 178.156 181.442C177.364 182.322 177.12 183.562 177.044 184.694C176.85 187.392 177.474 190.042 178.846 192.399C175.156 195.195 172.054 198.685 169.78 202.655C168.785 194.005 164.521 185.877 157.829 180.032C157.526 179.771 157.079 180.203 157.382 180.464C164.201 186.414 168.499 194.778 169.257 203.633C169.088 203.958 168.902 204.268 168.742 204.595C168.566 204.944 169.114 205.263 169.29 204.903C171.937 199.49 176.058 194.837 181.19 191.493C181.526 191.273 181.206 190.744 180.87 190.963C180.355 191.299 179.859 191.657 179.361 192.015C178.24 190.075 177.7 188.021 177.659 185.803C177.608 183.317 178.375 180.464 181.628 181.165C181.88 181.222 182.058 181.019 182.016 180.79C181.686 178.801 182.462 176.796 184.021 175.475C185.74 174.024 187.847 174.146 189.735 174.969C189.735 174.993 189.726 175.026 189.735 175.058C190.114 176.697 190.225 178.369 190.064 180.039C190.031 180.432 190.662 180.432 190.696 180.039C190.839 178.459 190.739 176.868 190.419 175.312C191.235 175.752 192.002 176.314 192.643 176.918C192.819 177.088 192.988 177.267 193.157 177.439C193.157 177.464 193.157 177.496 193.166 177.529C193.527 178.882 193.638 180.284 193.494 181.678C193.453 182.069 194.084 182.069 194.125 181.678C194.245 180.569 194.193 179.452 193.992 178.352C194.565 179.02 195.104 179.722 195.634 180.423C195.618 180.471 195.618 180.521 195.634 180.587C195.997 181.857 196.09 183.195 195.878 184.507C195.853 184.67 195.921 184.834 196.099 184.882C196.25 184.923 196.46 184.834 196.485 184.67C196.645 183.651 196.645 182.616 196.485 181.604C197.346 182.811 198.138 184.066 198.659 185.437C199.192 186.838 199.435 188.468 198.795 189.88C198.231 191.118 197.101 192.203 196.191 193.213C195.172 194.346 194.084 195.415 192.921 196.426C192.566 196.736 192.052 197.021 191.783 197.395C191.488 197.812 191.353 198.447 191.159 198.92C189.963 201.806 188.623 204.626 187.191 207.415C184.267 213.096 180.777 218.747 176.261 223.376C173.858 225.838 170.951 228.008 167.495 228.822C164.158 229.614 160.434 229.149 157.804 226.882C157.61 226.711 157.357 226.833 157.282 227.012C156.987 227.111 157.012 227.608 157.382 227.608C157.483 227.608 157.56 227.567 157.61 227.51C162.548 231.504 169.595 229.719 174.188 226.1C176.994 223.891 179.243 221.061 181.325 218.217C183.534 215.2 185.48 212.012 187.215 208.727C187.612 207.985 187.991 207.236 188.37 206.477C188.438 206.551 188.539 206.592 188.666 206.559C201.323 203.192 215.118 199.296 223.066 188.363C225.037 185.648 226.479 182.608 227.212 179.363C227.304 178.972 226.69 178.808 226.605 179.192ZM216.602 238.646C216.837 246.073 217.647 254.69 212.009 260.6C211.732 260.893 211.285 260.454 211.563 260.168C214.714 256.866 215.835 252.391 216.079 248.004C216.104 247.572 216.122 247.14 216.131 246.699C216.088 246.717 216.036 246.717 215.987 246.708C208.006 245.641 199.848 244.515 192.575 240.961C189.23 239.322 186.214 237.179 183.667 234.529C181.064 231.814 178.923 228.724 176.8 225.651C176.572 225.325 177.12 225.015 177.346 225.341C179.505 228.472 181.679 231.618 184.366 234.357C185.26 235.263 186.205 236.103 187.207 236.884C187.267 236.878 187.326 236.884 187.384 236.91C191.127 238.711 195.348 239.746 199.528 239.772C205.738 239.811 211.529 237.342 215.793 233.012C215.684 229.499 215.565 225.986 215.456 222.464C215.177 213.838 214.899 205.213 214.631 196.581C214.622 196.19 215.253 196.19 215.262 196.581C215.423 201.635 215.583 206.688 215.75 211.743C216.029 220.72 216.316 229.686 216.602 238.646ZM215.869 235.409C215.851 234.896 215.835 234.374 215.818 233.861C211.572 237.96 205.916 240.341 199.873 240.39C196.293 240.415 192.677 239.698 189.34 238.418C190.579 239.224 191.867 239.958 193.216 240.603C200.354 244.01 208.344 245.086 216.147 246.138C216.214 242.559 215.978 238.973 215.869 235.409Z" fill="black"/>
<path d="M254.298 142.084C250.328 140.82 246.495 141.357 243.747 142.084C248.322 131.33 247.715 122.77 247.041 118.475C243.788 97.7842 224.541 85.0578 219.729 81.8797C219.729 81.8797 219.231 81.5526 218.827 81.2926C187.173 60.9445 136.903 69.6353 109.364 95.6976C67.883 134.958 86.6338 215.29 125.991 255.382C130.187 259.662 168.363 297.521 211.419 291.366C220.918 290.004 227.877 286.907 230.55 285.628C261.275 270.895 268.902 235.344 271.413 223.793C278.359 191.943 273.68 148.263 254.298 142.084ZM258.25 239.054C252.68 253.5 245.121 273.113 227.255 277.655C218.869 279.783 211.107 277.858 206.151 276.057C206.151 276.057 186.828 272.454 169.552 262.663C136.829 244.108 80.8112 168.725 107.358 117.129C114.791 102.684 126.664 95.0778 130.97 92.3145C157.551 75.2599 193.216 77.5756 215.725 91.6775C220.984 94.971 231.737 101.713 236.077 114.505C237.738 119.396 237.763 125.584 237.629 129.366C234.586 137.404 232.269 143.354 230.895 146.868C227.449 155.657 225.721 159.798 227.6 164.093C228.502 166.164 229.479 166.524 230.895 169.833C232.125 172.719 234.038 178.653 232.218 179.884C229.968 181.392 224.861 173.869 220.015 175.263C216.223 176.355 213.704 182.534 215.068 186.432C217.083 192.178 232.529 193.883 239.474 193.768C240.334 193.752 242.5 193.687 244.092 195.048C246.402 197.013 246.899 201.439 245.078 203.338C242.66 205.866 236.431 203.6 232.218 202.059C218.827 197.176 216.214 190.247 208.806 190.891C204.635 191.257 199.975 193.931 199.241 197.273C197.96 203.111 208.377 212.306 219.19 215.135C224.802 216.602 229.344 216.056 230.237 218.485C231.038 220.67 228.536 224.33 225.29 225.659C219.341 228.106 209.068 223.483 204.188 218.005C203.498 217.23 201.694 215.037 200.565 215.453C199.654 215.787 199.233 217.581 199.58 218.959C200.211 221.526 203.43 222.619 206.995 224.062C218.869 228.879 217.798 230.852 222.822 231.236C224.144 231.334 233.549 232.059 236.835 226.133C239.263 221.763 237.316 215.641 233.702 212.738C230.911 210.497 229.1 211.743 220.672 209.705C220.672 209.705 214.495 208.035 207.972 203.486C206.338 202.345 204.761 201.072 204.838 199.499C204.913 198.015 206.438 196.712 207.804 196.149C211.184 194.771 214.597 197.738 222.973 202.205C232.96 207.537 233.389 207.904 235.673 208.744C241.656 210.944 249.468 213.814 254.138 210.023C258.056 206.837 258.562 199.931 255.949 195.186C252.967 189.765 246.637 188.486 245.069 188.167C240.957 187.335 240.106 188.551 233.524 188.486C230.954 188.461 219.896 188.346 218.852 184.653C218.464 183.293 219.442 181.418 220.758 180.953C223.361 180.048 225.536 185.257 230.557 185.607C232.757 185.762 235.656 184.996 237.156 183.055C238.514 181.303 238.227 179.249 236.003 169.336C234.291 161.729 233.896 160.426 234.349 158.331C235.31 153.944 238.96 150.961 241.859 149.143C242.533 148.889 243.267 148.71 244.092 148.71C249.714 148.704 253.969 156.522 255.293 158.966C275.079 195.382 258.25 239.054 258.25 239.054Z" fill="#D25043"/>
</svg>
