<svg width="26" height="26" viewBox="0 0 26 26" fill="none" xmlns="http://www.w3.org/2000/svg">
<mask id="mask0_193_1506" style="mask-type:luminance" maskUnits="userSpaceOnUse" x="2" y="0" width="24" height="21">
<path d="M2.94385 0H25.9999V20.9211H2.94385V0Z" fill="white"/>
</mask>
<g mask="url(#mask0_193_1506)">
<path d="M25.8224 10.6799L21.7229 6.7189C21.3607 6.36899 20.7715 6.36899 20.4092 6.7189C20.0469 7.0705 20.0469 7.63781 20.4092 7.98771L22.9224 10.4166H15.8719V1.26485C15.8719 0.928535 15.7347 0.612604 15.4903 0.374807C15.2476 0.140408 14.9117 0.00622177 14.5687 0.00622177H3.13745L9.72011 3.09589C11.0022 3.69887 11.8305 4.97788 11.8305 6.35541V20.6334H14.5687C14.9117 20.6334 15.2476 20.4975 15.4885 20.2631C15.7347 20.0253 15.8719 19.7077 15.8719 19.3714V14.0057H14.4263C13.9145 14.0057 13.4977 13.6031 13.4977 13.1071C13.4977 12.6129 13.9127 12.2103 14.4263 12.2103H22.9224L20.4092 14.6392C20.0469 14.9891 20.0469 15.5565 20.4092 15.9081C20.5904 16.083 20.8278 16.1696 21.0652 16.1696C21.3026 16.1696 21.5418 16.083 21.7229 15.9081L25.8224 11.9487C25.9965 11.7806 26.095 11.5513 26.095 11.3135C26.095 11.0757 25.9965 10.8481 25.8224 10.6799Z" fill="#858EA9"/>
</g>
<mask id="mask1_193_1506" style="mask-type:luminance" maskUnits="userSpaceOnUse" x="0" y="0" width="11" height="26">
<path d="M0 0.483166H10.1475V25.4366H0V0.483166Z" fill="white"/>
</mask>
<g mask="url(#mask1_193_1506)">
<path d="M8.90744 4.71209L0.217912 0.630474C0.103599 0.817314 0.0314941 1.03473 0.0314941 1.26573V19.5897C0.0314941 20.4271 0.537988 21.205 1.31707 21.5702L9.53704 25.431C9.63201 25.4752 9.74104 25.4701 9.83074 25.4157C9.91867 25.3631 9.97319 25.2663 9.97319 25.166V6.35629C9.97319 5.66158 9.55463 5.01613 8.90744 4.71209ZM8.31126 15.2737C8.31126 15.7697 7.89621 16.1705 7.38268 16.1705C6.86916 16.1705 6.45411 15.7697 6.45411 15.2737V12.2163C6.45411 11.7203 6.86916 11.3178 7.38268 11.3178C7.89621 11.3178 8.31126 11.7203 8.31126 12.2163V15.2737Z" fill="#858EA9"/>
</g>
</svg>
