<svg width="356" height="432" viewBox="0 0 356 432" fill="none" xmlns="http://www.w3.org/2000/svg">
<path d="M203.188 110.898C203.188 110.898 188.916 116.255 186.651 129.848C184.383 143.441 192.748 156.457 197.325 177.137C201.904 197.823 197.325 217.143 197.325 217.143L134.996 153.02C134.996 153.02 128.78 113.327 130.27 107.157C131.753 100.992 156.545 72.6548 157.622 73.6403C158.703 74.6228 203.188 110.898 203.188 110.898Z" fill="#221410"/>
<path d="M128.335 30.5477C128.335 30.5477 107.643 28.4667 83.9566 85.9669C83.9566 85.9669 72.7102 120.306 65.4016 162.596C56.5072 213.998 56.2985 222.235 56.5072 255.621C56.8748 313.223 99.4399 351.901 130.039 359.938C160.635 367.976 128.335 30.5535 128.335 30.5535" fill="#351F16"/>
<path d="M223.855 99.9282C223.855 99.9282 205.029 134.726 183.249 117.544C161.479 100.36 200.194 64.5771 200.194 64.5771L222.422 73.0403L223.855 99.9282Z" fill="#221410"/>
<mask id="mask0_2_169" style="mask-type:luminance" maskUnits="userSpaceOnUse" x="300" y="396" width="4" height="20">
<path d="M300.427 396.478H303.823V415.05H300.427V396.478Z" fill="white"/>
</mask>
<g mask="url(#mask0_2_169)">
<path d="M303.72 415.05C302.885 404.964 302.415 398.437 302.436 396.666C302.458 395.414 301.773 402.338 300.639 415.05H303.72Z" fill="#EFDAEF"/>
</g>
<path d="M167.33 119.347C167.33 119.347 150.822 132.697 155.526 154.339C155.526 154.339 140.503 167.764 123.154 165.599C123.154 165.599 106.334 166.393 107.462 159.315C108.733 151.325 124.839 120.892 113.549 85.0221C102.253 49.1551 190.458 92.9751 167.33 119.347Z" fill="#DC697B"/>
<path d="M274.174 292.311C274.174 292.311 254.364 280.73 241.335 267.699L198.929 213.998L170.24 269.948L234.444 321.359L274.174 292.311Z" fill="#DC697B"/>
<mask id="mask1_2_169" style="mask-type:luminance" maskUnits="userSpaceOnUse" x="170" y="409" width="37" height="7">
<path d="M170.43 409.091H206.319V415.05H170.43V409.091Z" fill="white"/>
</mask>
<g mask="url(#mask1_2_169)">
<path d="M206.097 415.05C195.122 406.179 182.648 408.109 170.626 415.05H206.097Z" fill="#DC697B"/>
</g>
<path d="M177.707 153.02C177.707 153.02 167.224 152.808 152.924 138.78C138.329 124.457 126.198 118.44 127.625 104.528C129.055 90.6072 132.073 58.8877 140.351 45.6887C148.632 32.4954 193.175 32.9476 210.506 54.4069C227.855 75.8662 193.452 131.451 177.707 153.02Z" fill="#F79490"/>
<path d="M113.412 62.7918C106.973 88.4189 124.089 114.058 151.66 120.051C179.206 126.036 206.783 110.113 213.222 84.4859C219.662 58.8558 202.546 33.22 174.991 27.232C147.423 21.2354 119.861 37.1618 113.412 62.7918Z" fill="#F79490"/>
<path d="M139.88 98.3428C139.88 98.3428 137.756 103.844 136.746 104.971C135.743 106.096 136.936 92.2041 133.762 87.4624C130.578 82.715 139.88 98.3428 139.88 98.3428Z" fill="#DC697B"/>
<path d="M212.11 88.2421C212.11 88.2421 210.826 77.4777 208.387 72.5969L188.897 99.9253C188.897 99.9253 157.245 116.51 139.637 99.2906L138.662 91.4767C138.662 91.4767 138.912 80.2108 139.307 79.7587C139.703 79.3152 161.9 64.8119 170.046 63.1367C178.221 61.4614 194.546 58.7834 198.845 58.7834C203.166 58.7834 211.082 57.1081 213.135 58.7834C215.169 60.4557 216.132 64.3627 216.132 65.9278C216.132 67.4871 215.275 73.6577 215.275 73.6577C215.275 73.6577 214.484 82.5932 212.11 88.2421Z" fill="#DC697B"/>
<path d="M184.147 98.9283C184.147 98.9283 164.417 122.324 123.833 118.66C123.833 118.66 164.165 127.512 187.953 100.453L184.147 98.9283Z" fill="#DC697B"/>
<path d="M136.746 104.971C136.497 106.194 142.51 100.119 142.416 87.8131C142.416 87.8131 136.332 84.7177 131.915 84.7177C131.915 84.7177 139.086 93.2533 136.746 104.971Z" fill="#351F16"/>
<path d="M205.2 97.8878C205.2 97.8878 198.845 96.798 195.698 98.5544C195.698 98.5544 192.19 106.061 196.726 107.707L196.511 109.099C196.511 109.099 187.14 106.499 186.651 105.919C186.159 105.337 185.645 98.6732 187.592 96.6937C188.212 96.0531 202.674 94.9663 205.2 97.8878Z" fill="#DC697B"/>
<path d="M197.047 111.42C197.047 111.42 197.627 112.066 197.561 112.264C197.496 112.458 193.025 112.304 188.34 109.096L197.047 111.42Z" fill="#221410"/>
<path d="M198.053 109.942C198.053 109.942 197.518 111.284 197.134 111.574C196.726 111.869 190.95 111.403 186.735 107.875L186.178 106.612L198.053 109.942Z" fill="white"/>
<path d="M190.907 108.22C190.458 109.157 190.502 109.803 190.564 110.206C192.427 111.003 194.203 111.406 195.443 111.562C196.085 110.913 196.405 110.171 196.405 110.171C196.405 110.171 195.571 109.551 194.524 108.951L191.1 107.989C191.013 108.046 190.951 108.122 190.907 108.22Z" fill="#2F0D13"/>
<path d="M191.206 108.449C191.206 108.449 191.013 109.835 191.443 110.287C191.443 110.287 194.972 110.913 195.549 110.794C195.549 110.794 196.085 110.362 196.191 109.904C196.278 109.443 191.206 108.449 191.206 108.449Z" fill="#430E16"/>
<path d="M184.103 105.597C184.103 105.597 196.726 112.788 200.536 109.229C200.536 109.229 193.153 109.096 184.103 105.597Z" fill="#221410"/>
<path d="M190.779 110.296V109.733C190.779 109.733 193.262 109.855 195.187 111.53C195.187 111.53 192.897 111.22 190.779 110.296Z" fill="#A82320"/>
<path d="M190.524 109.693C190.524 109.693 190.542 110.116 190.779 110.249C191.035 110.388 191.742 109.797 191.742 109.797C191.72 109.513 190.757 109.099 190.651 109.391C190.542 109.678 190.524 109.693 190.524 109.693Z" fill="white"/>
<path d="M194.717 110.635C194.717 110.635 195.315 110.742 195.377 110.881C195.443 111.02 194.994 110.959 194.717 110.635Z" fill="white"/>
<path d="M198.225 109.58C198.225 109.58 199.552 110.043 200.234 110.084C200.234 110.084 198.91 110.672 197.025 110.212L198.225 109.58Z" fill="#221410"/>
<path d="M195.228 110C195.228 110 197.412 111.02 198.247 111.058C198.247 111.058 196.898 110.345 196.963 110.142C197.004 109.936 195.228 110 195.228 110Z" fill="#221410"/>
<path d="M198.054 108.649C198.054 108.649 197.795 108.041 197.754 107.899C197.689 107.76 189.368 106.264 189.368 106.264C189.368 106.264 192.876 108.073 198.054 108.649Z" fill="#DC697B"/>
<path d="M202.331 112.626C202.331 112.626 198.951 119.405 200.536 128.425C200.642 129.109 201.689 131.196 199.016 131.248C195.1 131.329 189.816 129.929 189.816 129.929L202.331 112.626Z" fill="#F79490"/>
<path d="M83.3961 202.379C86.7264 192.351 89.7109 182.745 95.3809 174.862C96.3591 173.523 100.593 168.17 101.593 167.686C108.216 164.495 106.531 164.35 110.668 159.005C114.033 154.661 117.699 150.53 119.896 145.731L155.264 153.976C155.32 154.029 155.376 154.081 155.439 154.133C155.473 154.203 155.485 154.272 155.526 154.342C158.345 159.153 162.171 163.187 166.212 167.144C169.514 170.372 172.573 173.795 175.738 177.134C206.203 222.395 200.555 279.138 200.555 279.138C200.555 279.138 208.602 294.12 207.789 318.078C206.995 342.053 202.568 382.102 202.568 382.102C157.875 403.074 110.378 382.102 110.378 382.102C124.064 359.64 119.232 318.454 109.169 292.251C99.1006 266.026 72.1279 236.46 83.3961 202.379Z" fill="#EFDAEF"/>
<path d="M175.738 177.134C175.738 177.134 217.929 219.053 230.101 231.527C244.223 246.031 238.061 282.083 194.951 273.985C194.951 273.985 166.962 269.588 175.738 177.134Z" fill="#EFDAEF"/>
<mask id="mask2_2_169" style="mask-type:luminance" maskUnits="userSpaceOnUse" x="138" y="396" width="63" height="20">
<path d="M138.528 396.478H200.736V415.05H138.528V396.478Z" fill="white"/>
</mask>
<g mask="url(#mask2_2_169)">
<path d="M200.194 415.05C197.025 411.987 193.754 409.004 190.243 406.179C168.252 388.49 151.314 397.881 138.971 415.05H200.194Z" fill="#F79490"/>
</g>
<mask id="mask3_2_169" style="mask-type:luminance" maskUnits="userSpaceOnUse" x="95" y="377" width="106" height="39">
<path d="M95.4617 377.928H200.736V415.05H95.4617V377.928Z" fill="white"/>
</mask>
<g mask="url(#mask3_2_169)">
<path d="M200.063 415.05C191.698 367.697 173.193 387.238 173.193 387.238C173.193 387.238 115.55 371.995 110.378 382.102C106.325 390.023 100.387 401.721 95.7234 415.05H200.063Z" fill="#F79490"/>
</g>
<mask id="mask4_2_169" style="mask-type:luminance" maskUnits="userSpaceOnUse" x="128" y="264" width="175" height="152">
<path d="M128.161 264.406H302.82V415.05H128.161V264.406Z" fill="white"/>
</mask>
<g mask="url(#mask4_2_169)">
<path d="M299.315 415.05C302.053 405.761 303.187 395.394 302.243 383.934C295.698 302.757 195.68 264.554 195.68 264.554C138.765 302.279 129.749 396.547 128.516 415.05H299.315Z" fill="#EFDAEF"/>
</g>
<path d="M248.887 305.105C248.887 305.105 238.104 307.432 232.69 313.779C232.69 313.779 229.568 316.884 231.023 317.657C232.456 318.454 233.631 319.031 239.752 319.13C239.752 319.13 229.802 325.915 226.338 332.503C222.849 339.088 229.098 336.302 229.93 336.184C230.765 336.082 235.129 335.288 235.129 335.288C235.129 335.288 232.927 338.094 238.939 338.192C244.93 338.311 249.722 337.415 251.541 336.52C253.335 335.624 263.65 328.72 263.884 325.915C264.121 323.129 264.249 312.982 260.653 310.754C257.058 308.507 248.887 305.105 248.887 305.105Z" fill="#EFDAEF"/>
<mask id="mask5_2_169" style="mask-type:luminance" maskUnits="userSpaceOnUse" x="93" y="368" width="210" height="48">
<path d="M93.8667 368.283H302.82V415.05H93.8667V368.283Z" fill="white"/>
</mask>
<g mask="url(#mask5_2_169)">
<path d="M302.564 415.05V388.568C302.564 388.568 154.276 354.945 113.733 375.358C113.733 375.358 102.615 391.533 94.605 415.05H302.564Z" fill="#EFDAEF"/>
</g>
<mask id="mask6_2_169" style="mask-type:luminance" maskUnits="userSpaceOnUse" x="80" y="178" width="158" height="238">
<path d="M80.3086 178.337H237.422V415.05H80.3086V178.337Z" fill="white"/>
</mask>
<g mask="url(#mask6_2_169)">
<path d="M113.565 375.616C112.21 377.627 102.069 393.145 94.6174 415.05H219.789C189.069 396.588 163.641 367.361 166.613 334.053C171.268 281.845 214.571 274.463 214.571 274.463C220.176 273.11 224.369 271.122 227.556 268.852C234.382 263.482 237.204 255.442 236.799 247.744C233.547 253.036 223.855 251.364 223.855 251.364C183.184 248.022 151.507 202.158 151.507 202.158C122.49 170.746 101.156 177.134 88.773 187.206C86.7885 192.032 85.1373 197.144 83.3959 202.379C72.1276 236.46 99.1004 266.026 109.169 292.251C118.331 316.107 123.114 352.339 113.565 375.618" fill="#E3C8D8"/>
</g>
<mask id="mask7_2_169" style="mask-type:luminance" maskUnits="userSpaceOnUse" x="113" y="367" width="107" height="49">
<path d="M113.007 367.541H219.876V415.05H113.007V367.541Z" fill="white"/>
</mask>
<g mask="url(#mask7_2_169)">
<path d="M187.633 415.05H219.705L115.905 368.274L113.565 375.618L115.107 379.198C123.727 386.658 158.52 402.498 187.633 415.05Z" fill="#C4B2D1"/>
</g>
<path d="M142.236 216.665C142.236 216.665 140.61 190.64 119.089 186.919C97.5615 183.203 80.6981 202.776 82.8633 226.313C84.3867 242.889 107.506 260.018 113.973 261.731C120.441 263.441 144.454 245.155 142.236 216.665Z" fill="#F79490"/>
<path d="M83.9565 226.751C83.9565 226.751 88.5112 277.368 104.178 359.938C104.178 359.938 133.192 355.223 142.494 344.56C142.494 344.56 136.295 276.692 137.235 241.556C137.908 216.546 83.9565 226.751 83.9565 226.751Z" fill="#F79490"/>
<mask id="mask8_2_169" style="mask-type:luminance" maskUnits="userSpaceOnUse" x="103" y="324" width="143" height="92">
<path d="M103.437 324.506H245.398V415.05H103.437V324.506Z" fill="white"/>
</mask>
<g mask="url(#mask8_2_169)">
<path d="M127.833 377.189C143.775 387.096 178.006 403.173 204.238 415.05H244.672C244.095 413.459 243.581 412.387 243.581 412.387C243.581 412.387 217.93 400.825 185.302 371.042C158.607 346.667 133.335 324.741 133.335 324.741L104.213 359.182C104.213 359.182 100.104 359.918 127.833 377.189Z" fill="#F79490"/>
</g>
<mask id="mask9_2_169" style="mask-type:luminance" maskUnits="userSpaceOnUse" x="240" y="413" width="17" height="3">
<path d="M240.612 413.543H256.563V415.05H240.612V413.543Z" fill="white"/>
</mask>
<g mask="url(#mask9_2_169)">
<path d="M255.924 415.05L241.186 414.256C241.186 414.256 241.806 414.575 242.768 415.05H255.924Z" fill="#DC697B"/>
</g>
<mask id="mask10_2_169" style="mask-type:luminance" maskUnits="userSpaceOnUse" x="239" y="411" width="15" height="5">
<path d="M239.017 411.317H253.373V415.05H239.017V411.317Z" fill="white"/>
</mask>
<g mask="url(#mask10_2_169)">
<path d="M253.357 415.05C247.046 413.34 241.827 411.909 241.827 411.909C241.827 411.909 240.693 413.161 239.301 415.05H253.357Z" fill="#F79490"/>
</g>
<path d="M250.747 307.232C250.747 307.232 243.089 283.138 266.217 287.236C299.658 293.187 283.031 326.332 273.791 324.683C265.404 323.15 270.152 327.428 250.747 307.232Z" fill="#DC697B"/>
<path d="M269.489 303.951C267.351 302.716 265.146 301.861 262.856 301.264C260.847 301.363 258.491 301.563 255.734 301.861C255.734 301.861 244.307 303.951 239.665 310.139C236.541 314.295 233.098 318.254 233.098 318.254C233.098 318.254 236.092 319.788 240.566 314.594C240.566 314.594 246.17 311.232 248.715 310.794C248.715 310.794 245.933 318.275 243.173 321.915C240.413 325.579 229.59 333.456 229.59 333.456C229.59 333.456 227.643 334.471 229.011 336.421C230.403 338.372 244.329 330.929 244.329 330.929L251.304 325.039L245.806 333.219C245.806 333.219 239.687 335.427 238.338 336.421C237.014 337.415 238.167 338.749 238.531 338.809C238.874 338.847 243.388 338.192 243.388 338.192C243.388 338.192 243.964 340.062 245.098 340.041C246.254 340.021 251.818 338.61 251.818 338.61L254.535 336.482L259.114 332.998L254.342 337.914C254.342 337.914 252.694 339.705 253.229 340.879C253.787 342.053 254.899 342.172 254.899 342.172L262.473 335.943C262.473 335.943 276.314 324.144 275.822 312.188C274.283 306.934 273.277 306.139 269.489 303.951Z" fill="#F79490"/>
<path d="M118.93 166.57C111.942 165.239 103.69 167.518 95.3809 174.862C95.3809 174.862 105.97 160.99 112.369 143.624C116.459 132.532 151.962 144.154 154.931 150.762L155.526 154.342C155.526 154.342 165.121 165.106 176.336 177.505C180.916 182.543 193.904 199.495 152.95 186.548C139.236 175.384 129.348 168.549 118.93 166.57Z" fill="#DC697B"/>
<path d="M207.639 98.4703C207.639 98.4703 196.321 95.2155 185.365 97.34C185.365 97.34 196.362 93.7026 204.107 95.3488C204.107 95.3488 207.851 97.2675 207.639 98.4703Z" fill="#351F16"/>
<path d="M207.851 60.8963C207.851 60.8963 197.219 129.161 133.148 89.158C133.148 89.158 126.759 83.9845 124.372 95.9575C124.372 95.9575 120.727 119.234 132.79 139.024C144.843 158.814 156.906 172.033 154.027 182.58C151.149 193.127 127.388 178.05 117.307 177.137C107.228 176.221 93.3776 179.624 85.1873 197.005C85.1873 197.005 84.0097 191.284 88.3307 183.418C92.6517 175.552 111.241 162.419 138.659 175.679C138.659 175.679 141.968 176.053 140.528 172.54C139.086 169.025 124.326 148.603 119.469 137.557C114.609 126.515 112.425 98.7283 112.525 88.1755C112.525 88.1755 98.5865 58.9428 107.403 44.3815C116.222 29.8174 162.486 3.81925 208.73 38.295C208.73 38.295 210.207 43.6541 207.851 60.8963Z" fill="#351F16"/>
<path d="M134.858 89.6652C134.858 89.6652 131.796 81.4629 124.656 83.1932C117.518 84.9235 118.241 95.856 120.995 100.824C123.762 105.789 127.298 108.948 129.095 107.157C130.902 105.377 135.94 96.2995 134.858 89.6652Z" fill="#F79490"/>
<path d="M132.457 91.1201C132.457 91.1201 130.799 84.5206 124.332 86.2538C117.864 87.987 121.677 98.6442 124.852 99.9282C124.852 99.9282 123.952 95.7865 127.198 95.7952C130.45 95.8068 132.584 93.6214 132.457 91.1201Z" fill="#DC697B"/>
<path d="M207.639 59.5543C207.639 59.5543 222.593 80.6426 219.063 107.157C219.063 107.157 225.31 105.589 225.652 101.067C225.652 101.067 229.076 100.554 229.269 95.9575C229.438 91.3607 232.712 43.654 207.851 40.4803C183.012 37.295 207.639 59.5543 207.639 59.5543Z" fill="#351F16"/>
<path d="M206.59 52.8591C206.59 52.8591 189.817 144.137 117.067 117.359C117.067 117.359 181.944 153.02 212.11 62.4584L206.59 52.8591Z" fill="#351F16"/>
<path d="M128.488 405.222C128.488 405.222 126.874 391.794 116.783 386.36C116.783 386.36 112.546 396.666 128.488 405.222Z" fill="white"/>
<path d="M127.251 407.373C127.251 407.373 117.313 403.57 109.958 407.729C109.958 407.729 115.631 413.937 127.251 407.373Z" fill="white"/>
<path d="M146.712 407.451C146.712 407.451 137.775 403.712 130.911 407.271C130.911 407.271 135.887 413.103 146.712 407.451Z" fill="white"/>
<path d="M131.401 403.889C131.401 403.889 137.008 399.93 136.943 394.678C136.943 394.678 131.282 395.614 131.401 403.889Z" fill="white"/>
<path d="M156.504 306.079C156.504 306.079 157.679 296.329 165.003 292.39C165.003 292.39 168.081 299.87 156.504 306.079Z" fill="white"/>
<path d="M157.404 307.632C157.404 307.632 164.613 304.884 169.962 307.91C169.962 307.91 165.838 312.406 157.404 307.632Z" fill="white"/>
<path d="M153.853 319.13C153.853 319.13 152.118 312.585 155.828 308.426C155.828 308.426 159.725 312.565 153.853 319.13Z" fill="white"/>
<path d="M143.276 307.71C143.276 307.71 149.762 304.986 154.738 307.571C154.738 307.571 151.133 311.809 143.276 307.71Z" fill="white"/>
<path d="M154.382 305.105C154.382 305.105 150.314 302.238 150.364 298.439C150.364 298.439 154.47 299.096 154.382 305.105Z" fill="white"/>
<path d="M174.028 268.812C174.028 268.812 167.822 264.018 168.187 258.01C168.187 258.01 174.626 259.322 174.028 268.812Z" fill="white"/>
<path d="M175.483 268.933C175.483 268.933 176.617 263.499 180.938 261.589C180.938 261.589 182.287 265.928 175.483 268.933Z" fill="white"/>
<path d="M181.879 275.875C181.879 275.875 176.639 274.165 175.355 270.206C175.355 270.206 179.826 269.629 181.879 275.875Z" fill="white"/>
<path d="M169.576 277.347C169.576 277.347 170.433 272.353 174.305 270.484C174.305 270.484 175.695 274.423 169.576 277.347Z" fill="white"/>
<path d="M172.464 269.67C172.464 269.67 168.785 270.881 166.193 269.249C166.193 269.249 168.38 267.081 172.464 269.67Z" fill="white"/>
<path d="M215.446 265.331C215.446 265.331 211.917 263.322 212.132 260.775C212.132 260.775 215.789 261.331 215.446 265.331Z" fill="white"/>
<path d="M216.281 265.392C216.281 265.392 216.923 263.102 219.406 262.287C219.406 262.287 220.176 264.116 216.281 265.392Z" fill="white"/>
<path d="M219.939 268.316C219.939 268.316 216.945 267.58 216.194 265.928C216.194 265.928 218.764 265.69 219.939 268.316Z" fill="white"/>
<path d="M212.901 268.933C212.901 268.933 213.393 266.823 215.618 266.047C215.618 266.047 216.409 267.699 212.901 268.933Z" fill="white"/>
<path d="M214.571 265.69C214.571 265.69 212.453 266.206 210.976 265.51C210.976 265.51 212.216 264.595 214.571 265.69Z" fill="white"/>
<path d="M156.457 234.571C156.457 234.571 157.719 227.151 153.171 222.873C153.171 222.873 149.27 227.806 156.457 234.571Z" fill="white"/>
<path d="M155.454 235.544C155.454 235.544 150.731 232.162 146.13 233.397C146.13 233.397 148.192 237.475 155.454 235.544Z" fill="white"/>
<path d="M155.572 244.697C155.572 244.697 158.28 240.202 156.442 236.423C156.442 236.423 152.672 238.75 155.572 244.697Z" fill="white"/>
<path d="M165.862 238.252C165.862 238.252 161.672 235.029 157.429 236.002C157.429 236.002 159.174 239.805 165.862 238.252Z" fill="white"/>
<path d="M158.227 234.252C158.227 234.252 161.853 232.898 162.647 230.096C162.647 230.096 159.473 229.797 158.227 234.252Z" fill="white"/>
<path d="M188.427 133.503C188.427 133.503 189.86 134.427 188.168 135.149C186.48 135.871 180.059 133.79 177.685 131.894L188.427 133.503Z" fill="#F25469"/>
<path d="M176.23 130.378C176.23 130.378 176.467 131.807 180.467 132.961C186.564 134.723 189.324 133.874 190.673 133.407C192.599 132.737 188.639 132.404 184.446 132.433C178.52 132.479 176.23 130.378 176.23 130.378Z" fill="#DC697B"/>
</svg>
