<svg width="215" height="176" viewBox="0 0 215 176" fill="none" xmlns="http://www.w3.org/2000/svg">
<path d="M115.124 130.369C116.149 121.239 116.414 112.001 118.16 102.979C119.906 93.9567 123.289 84.9723 129.633 78.3151C137.961 69.5791 150.523 65.67 158.406 56.5345C159.29 58.6456 159.767 60.9241 159.805 63.208C161.882 60.2168 162.944 56.5291 162.782 52.8954C176.71 44.0191 188.725 32.1677 197.78 18.3781C197.102 32.9938 196.18 47.7877 190.937 61.4532C186.068 66.5825 180.571 66.1884 178.565 65.0977C180.934 67.4194 186.182 69.2335 187.028 68.8826C177.432 91.9374 158.775 91.4892 151.564 94.8368C135.326 102.38 122.801 114.231 115.124 130.369Z" fill="#FFC5C3"/>
<path d="M116.642 122.756L115.086 130.099C136.161 69.5413 161.681 88.6546 178.304 60.8161C185.044 49.5371 191.062 36.4817 195.725 26.3743C195.714 24.8086 195.714 25.721 195.703 24.1606C190.65 36.0822 184.192 51.3405 173.197 66.1992C157.49 83.574 131.796 78.72 116.642 122.756Z" fill="white"/>
<path d="M37.7874 53.8132C37.8958 53.77 39.3543 38.0528 31.921 39.5106C21.9177 41.476 37.6844 53.851 37.7874 53.8132Z" fill="#B67A7F"/>
<path d="M41.9676 57.787C42.0435 57.8356 53.9118 51.7993 49.6882 47.5015C44.0008 41.7135 41.8971 57.733 41.9676 57.787Z" fill="#B67A7F"/>
<path d="M45.7737 63.8559C45.8496 63.9477 62.5 60.0225 58.6776 53.3868C53.5215 44.451 45.7032 63.7695 45.7737 63.8559Z" fill="#B67A7F"/>
<path d="M49.1244 68.3805C49.146 68.4561 60.9602 70.6158 60.5264 65.2543C59.9463 58.0355 49.1027 68.3049 49.1244 68.3805Z" fill="#B67A7F"/>
<path d="M38.2211 54.9308C41.3983 58.3863 44.9659 62.9001 48.2298 68.5585C53.0389 76.8841 55.4354 84.6698 56.6987 90.474C54.6926 84.1731 51.754 76.7923 47.384 68.9418C44.3857 63.5642 41.2357 58.8992 38.2211 54.9308Z" fill="#B67A7F"/>
<path d="M52.0793 72.5163C52.0685 72.5703 59.3608 77.0247 60.5319 73.2992C62.1096 68.2887 52.0847 72.457 52.0793 72.5163Z" fill="#B67A7F"/>
<path d="M37.9501 56.718C37.961 56.8098 26.83 64.0502 24.9703 58.3918C22.4546 50.7734 37.9393 56.6316 37.9501 56.718Z" fill="#B67A7F"/>
<path d="M42.7267 63.4563C42.77 63.5643 31.2595 75.9015 27.0956 69.4656C21.484 60.7944 42.6833 63.3537 42.7267 63.4563Z" fill="#B67A7F"/>
<path d="M45.2098 68.4777C45.2694 68.5371 41.5771 79.6487 36.9415 76.7169C30.6901 72.7701 45.1501 68.4237 45.2098 68.4777Z" fill="#B67A7F"/>
<path d="M47.5412 72.9752C47.5954 72.9967 48.1322 81.344 44.2068 80.5665C38.9205 79.519 47.4816 72.9536 47.5412 72.9752Z" fill="#B67A7F"/>
<path d="M93.9301 150.541C91.9837 141.562 90.7801 132.399 88.1234 123.598C85.4667 114.803 81.1943 106.202 74.2002 100.22C65.0319 92.3747 52.1388 89.756 43.3663 81.4682C42.6995 83.6549 42.4609 85.9712 42.6561 88.2496C40.2813 85.4798 38.8446 81.9217 38.6385 78.2826C23.8804 70.8641 10.7271 60.2923 0.311768 47.4907C2.47507 61.9607 4.8932 76.5873 11.497 89.6534C16.87 94.259 22.2972 93.3087 24.1786 92.0291C22.0586 94.5775 17.0218 96.9046 16.1489 96.6509C28.0335 118.61 46.5544 116.283 54.069 118.88C70.985 124.738 84.6534 135.261 93.9301 150.541Z" fill="#FFC7BB"/>
<path d="M91.6476 143.117L93.9464 150.265C66.8157 92.1587 43.3772 113.75 23.9997 87.7421C16.1543 77.1974 8.8349 64.8223 3.16911 55.2333C3.02815 53.6783 3.1149 54.5854 2.96851 53.0304C9.20358 64.385 17.1791 78.909 29.633 92.5799C47.0261 108.275 72.0911 100.846 91.6476 143.117Z" fill="white"/>
<path d="M193.626 98.8214C193.692 98.9725 216.62 100.398 214.175 89.7074C210.879 75.3022 193.567 98.6702 193.626 98.8214Z" fill="#B67A7F"/>
<path d="M188.031 105.047C187.955 105.16 197.264 122.065 203.326 115.764C211.497 107.277 188.102 104.939 188.031 105.047Z" fill="#B67A7F"/>
<path d="M179.362 110.824C179.237 110.932 185.678 134.867 195.161 129.035C207.935 121.18 179.481 110.71 179.362 110.824Z" fill="#B67A7F"/>
<path d="M172.931 115.867C172.817 115.905 170.193 133.096 177.974 132.237C188.454 131.076 173.04 115.834 172.931 115.867Z" fill="#B67A7F"/>
<path d="M192.022 99.4963C187.126 104.242 180.717 109.609 172.628 114.582C160.727 121.903 149.504 125.72 141.116 127.799C150.192 124.619 160.803 120.046 172.037 113.367C179.73 108.794 186.372 104.032 192.022 99.4963Z" fill="#B67A7F"/>
<path d="M167.038 120.321C166.957 120.316 160.803 131.06 166.268 132.594C173.631 134.656 167.125 120.332 167.038 120.321Z" fill="#B67A7F"/>
<path d="M189.403 99.183C189.273 99.2046 178.25 83.4118 186.399 80.4639C197.378 76.4954 189.527 99.1614 189.403 99.183Z" fill="#B67A7F"/>
<path d="M179.806 106.391C179.66 106.456 161.204 90.339 170.383 84.0273C182.75 75.5235 179.958 106.321 179.806 106.391Z" fill="#B67A7F"/>
<path d="M172.611 110.208C172.535 110.295 156.2 105.441 160.261 98.5946C165.737 89.3781 172.693 110.117 172.611 110.208Z" fill="#B67A7F"/>
<path d="M166.176 113.772C166.143 113.853 154.026 115.003 154.985 109.285C156.276 101.586 166.203 113.696 166.176 113.772Z" fill="#B67A7F"/>
<path d="M156.948 19.2634C156.818 19.2094 154.985 -0.454621 164.284 1.37033C176.808 3.82698 157.078 19.312 156.948 19.2634Z" fill="#B67A7F"/>
<path d="M151.716 24.2363C151.618 24.301 136.773 16.7421 142.059 11.3699C149.178 4.12947 151.808 24.1715 151.716 24.2363Z" fill="#B67A7F"/>
<path d="M146.956 31.8329C146.863 31.9463 126.022 27.033 130.809 18.7343C137.261 7.55247 147.048 31.7249 146.956 31.8329Z" fill="#B67A7F"/>
<path d="M142.759 37.4913C142.737 37.5885 127.957 40.2935 128.494 33.5876C129.226 24.5493 142.786 37.3941 142.759 37.4913Z" fill="#B67A7F"/>
<path d="M156.406 20.662C152.437 24.9922 147.964 30.6398 143.881 37.7182C137.868 48.1334 134.865 57.879 133.282 65.1356C135.797 57.2527 139.473 48.02 144.944 38.1987C148.696 31.4659 152.632 25.6293 156.406 20.662Z" fill="#B67A7F"/>
<path d="M139.067 42.6693C139.078 42.7394 129.958 48.3061 128.489 43.6519C126.515 37.378 139.061 42.5937 139.067 42.6693Z" fill="#B67A7F"/>
<path d="M156.747 22.9026C156.731 23.016 170.66 32.0759 172.991 24.9975C176.136 15.4625 156.758 22.7946 156.747 22.9026Z" fill="#B67A7F"/>
<path d="M150.767 31.336C150.713 31.4656 165.113 46.9021 170.329 38.8518C177.35 27.9993 150.821 31.2011 150.767 31.336Z" fill="#B67A7F"/>
<path d="M147.66 37.6157C147.584 37.6859 152.204 51.5943 158.011 47.9282C165.834 42.9879 147.736 37.5455 147.66 37.6157Z" fill="#B67A7F"/>
<path d="M144.749 43.2414C144.678 43.2684 144.001 53.7159 148.913 52.7387C155.527 51.4267 144.814 43.2144 144.749 43.2414Z" fill="#B67A7F"/>
<path d="M45.7628 0.711677C46.7713 3.72986 66.4091 21.164 78.0497 42.3831C99.2056 80.9553 107.891 124.041 102.762 126.034C97.2266 128.188 74.7641 82.6938 63.6819 57.2094C61.8547 53.0142 45.7574 0.69008 45.7628 0.711677Z" fill="#FFDFDF"/>
<path d="M47.9966 5.28479C49.0918 7.97902 63.2645 34.5865 73.452 53.0303C91.9621 86.5434 101.922 122.524 101.938 122.556C103.695 125.812 87.5433 84.4053 76.9003 61.9553C75.1491 58.2622 47.9912 5.2686 47.9966 5.28479Z" fill="white"/>
<path d="M150.462 170.858L150.442 170.869H150.447L150.452 170.874H150.457L150.462 170.858Z" fill="black"/>
<path d="M157.035 175.269L157.024 175.275L156.975 175.313L156.991 175.367L157.035 175.269Z" fill="black"/>
<path d="M13.0802 140.66H13.0693L13.0422 140.671L13.0802 140.66Z" fill="black"/>
<path d="M13.606 140.482L13.5681 140.498L13.4922 140.536L13.4488 140.552L13.4108 140.568L13.3566 140.595L13.4108 140.574L13.4976 140.536L13.5898 140.493L13.606 140.482Z" fill="black"/>
<path d="M13.194 140.666C13.1832 140.671 13.1561 140.676 13.1073 140.693H13.1019V140.698H13.1073L13.1181 140.693L13.1398 140.687L13.1724 140.676L13.194 140.666Z" fill="black"/>
<path d="M13.1777 140.671L13.1669 140.676L13.0964 140.698H13.1072L13.1235 140.693L13.1452 140.687L13.1506 140.682L13.1723 140.676L13.1777 140.671Z" fill="black"/>
<path d="M213.926 126.46H213.931L213.904 126.444L213.926 126.46Z" fill="black"/>
<path d="M77.6757 73.3856L69.7978 117.811C69.0984 121.342 60.0386 121.801 51.2444 122.8C43.99 123.62 34.9193 122.135 30.7337 126.871C29.3999 128.382 28.6734 130.85 28.9499 131.055C29.2969 131.314 30.8963 127.794 34.3826 125.839C37.2507 124.23 38.9206 124.846 48.2461 124.338C54.7523 123.982 53.3481 124.009 57.4849 123.609C61.3669 123.231 64.9616 122.778 69.2339 122.211C70.4267 122.049 71.2509 121.358 71.7985 121.093C72.3298 120.057 73.2786 118.459 73.8588 116.315C75.1708 111.488 75.6913 107.725 75.9461 106.094C76.895 100.079 77.4859 92.9039 79.286 81.5385C78.7492 78.8173 78.2125 76.1014 77.6757 73.3856Z" fill="#E2AB81"/>
<mask id="mask0_133_944" style="mask-type:luminance" maskUnits="userSpaceOnUse" x="99" y="7" width="3" height="3">
<path d="M99.1785 7.53625H101.385V9.18302H99.1785V7.53625Z" fill="white"/>
</mask>
<g mask="url(#mask0_133_944)">
<mask id="mask1_133_944" style="mask-type:luminance" maskUnits="userSpaceOnUse" x="96" y="7" width="8" height="5">
<path d="M101.336 11.7153C102.892 11.305 103.906 9.80941 103.906 8.13025V8.10325C103.917 9.79862 102.898 11.305 101.336 11.7153Z" fill="white"/>
</mask>
<g mask="url(#mask1_133_944)">
<path fill-rule="evenodd" clip-rule="evenodd" d="M101.038 7.73065C100.924 7.29331 100.512 7.02334 100.122 7.13133C99.7261 7.23392 99.5038 7.67125 99.6176 8.10319C99.7315 8.54053 100.144 8.8051 100.534 8.70251C100.93 8.59992 101.157 8.16259 101.038 7.73065L101.054 7.72525C101.168 8.16798 100.941 8.61612 100.539 8.71871C100.138 8.82129 99.7207 8.55133 99.6068 8.10859C99.4875 7.66045 99.7152 7.21772 100.116 7.11513C100.518 7.00715 100.935 7.28251 101.054 7.72525" fill="#FC9E7A"/>
<path fill-rule="evenodd" clip-rule="evenodd" d="M101.054 7.72525C100.935 7.28251 100.518 7.00715 100.116 7.11513C99.7151 7.21772 99.4874 7.66046 99.6067 8.10859C99.7206 8.55133 100.138 8.82129 100.539 8.71871C100.94 8.61612 101.168 8.16798 101.054 7.72525L101.065 7.71985C101.184 8.17338 100.951 8.62692 100.545 8.72951C100.138 8.83749 99.7097 8.56213 99.5904 8.11399C99.4712 7.66046 99.7043 7.20692 100.111 7.09893C100.523 6.99095 100.946 7.27171 101.065 7.71985" fill="#FC9E7B"/>
<path fill-rule="evenodd" clip-rule="evenodd" d="M101.065 7.71989C100.946 7.27175 100.523 6.99099 100.111 7.09898C99.7043 7.20696 99.4712 7.6605 99.5905 8.11403C99.7098 8.56217 100.138 8.83753 100.545 8.72955C100.951 8.62696 101.184 8.17342 101.065 7.71989H101.081C101.201 8.17342 100.962 8.63776 100.55 8.74575C100.133 8.85373 99.6989 8.57297 99.5742 8.11403C99.4549 7.6551 99.6935 7.19616 100.106 7.08818C100.523 6.97479 100.957 7.26095 101.081 7.71989" fill="#FC9F7B"/>
<path fill-rule="evenodd" clip-rule="evenodd" d="M101.081 7.71977C100.957 7.26084 100.523 6.97468 100.106 7.08806C99.6935 7.19605 99.4549 7.65498 99.5742 8.11392C99.6989 8.57285 100.133 8.85361 100.55 8.74563C100.962 8.63764 101.201 8.17331 101.081 7.71977L101.092 7.71437C101.217 8.18411 100.973 8.64844 100.556 8.76183C100.127 8.87521 99.6881 8.58365 99.5634 8.11932C99.4387 7.64958 99.6827 7.17985 100.106 7.06646C100.528 6.95848 100.968 7.24464 101.092 7.71437" fill="#FC9F7B"/>
<path fill-rule="evenodd" clip-rule="evenodd" d="M101.092 7.71441C100.968 7.24468 100.529 6.95852 100.106 7.0665C99.6827 7.17989 99.4388 7.64962 99.5635 8.11936C99.6882 8.58369 100.127 8.87525 100.556 8.76187C100.973 8.64848 101.217 8.18415 101.092 7.71441L101.103 7.70901C101.233 8.18415 100.984 8.66468 100.556 8.77807C100.127 8.89145 99.6773 8.59449 99.5526 8.11936C99.4225 7.64422 99.6719 7.16909 100.1 7.05571C100.529 6.94232 100.979 7.23388 101.103 7.70901" fill="#FC9F7B"/>
<path fill-rule="evenodd" clip-rule="evenodd" d="M101.103 7.709C100.978 7.23387 100.528 6.94231 100.1 7.05569C99.6718 7.16908 99.4224 7.64421 99.5525 8.11935C99.6773 8.59448 100.127 8.89144 100.556 8.77805C100.984 8.66467 101.233 8.18414 101.103 7.709H101.119C101.25 8.18954 101 8.67547 100.561 8.78885C100.122 8.90764 99.6664 8.60528 99.5363 8.12475C99.4062 7.64421 99.6556 7.15288 100.095 7.0395C100.534 6.92611 100.989 7.22307 101.119 7.709" fill="#FC9F7B"/>
<path fill-rule="evenodd" clip-rule="evenodd" d="M101.12 7.70914C100.989 7.22321 100.534 6.92625 100.095 7.03963C99.6556 7.15302 99.4062 7.64435 99.5364 8.12488C99.6665 8.60541 100.122 8.90777 100.561 8.78899C101 8.67561 101.25 8.18967 101.12 7.70914L101.136 7.70374C101.26 8.19507 101.011 8.6864 100.561 8.80519C100.116 8.92397 99.6502 8.62161 99.5201 8.13028C99.3954 7.63895 99.6502 7.14222 100.095 7.02344C100.539 6.91005 101.006 7.21241 101.136 7.70374" fill="#FC9F7B"/>
<path fill-rule="evenodd" clip-rule="evenodd" d="M101.136 7.70366C101.006 7.21233 100.539 6.90997 100.095 7.02335C99.6501 7.14214 99.3953 7.63887 99.52 8.1302C99.6501 8.62153 100.116 8.92389 100.561 8.80511C101.011 8.68632 101.26 8.19499 101.136 7.70366H101.147C101.282 8.20039 101.022 8.70252 100.566 8.8213C100.116 8.94009 99.6393 8.63233 99.5091 8.1302C99.379 7.63347 99.6393 7.13134 100.089 7.01256C100.539 6.88837 101.016 7.20153 101.147 7.70366" fill="#FB9F7B"/>
<path fill-rule="evenodd" clip-rule="evenodd" d="M101.147 7.70365C101.016 7.20152 100.539 6.88836 100.089 7.01254C99.6393 7.13133 99.3791 7.63346 99.5092 8.13019C99.6393 8.63232 100.116 8.94008 100.566 8.82129C101.022 8.70251 101.282 8.20038 101.147 7.70365L101.157 7.69825C101.293 8.20578 101.033 8.71871 100.572 8.83749C100.111 8.95627 99.6285 8.64312 99.4984 8.13559C99.3628 7.62806 99.6285 7.11513 100.084 6.99635C100.545 6.87756 101.027 7.19072 101.157 7.69825" fill="#FB9F7B"/>
<path fill-rule="evenodd" clip-rule="evenodd" d="M101.157 7.69826C101.027 7.19073 100.545 6.87757 100.084 6.99635C99.6285 7.11514 99.3628 7.62807 99.4984 8.1356C99.6285 8.64312 100.111 8.95628 100.572 8.8375C101.033 8.71871 101.293 8.20579 101.157 7.69826L101.174 7.69286C101.309 8.21118 101.044 8.72951 100.572 8.85369C100.106 8.97248 99.6177 8.65392 99.4821 8.14099C99.3466 7.62267 99.6122 7.10434 100.084 6.98016C100.55 6.85597 101.038 7.17993 101.174 7.69286" fill="#FB9F7B"/>
<path fill-rule="evenodd" clip-rule="evenodd" d="M101.174 7.69291C101.038 7.17998 100.55 6.85603 100.084 6.98021C99.6122 7.10439 99.3465 7.62272 99.482 8.14105C99.6176 8.65397 100.106 8.97253 100.572 8.85375C101.044 8.72956 101.309 8.21124 101.174 7.69291L101.19 7.68751C101.325 8.21663 101.054 8.74036 100.577 8.86455C100.106 8.98873 99.6067 8.66477 99.4712 8.14105C99.3302 7.61732 99.6013 7.08819 100.078 6.96401C100.55 6.83983 101.049 7.16378 101.19 7.68751" fill="#FBA07B"/>
<path fill-rule="evenodd" clip-rule="evenodd" d="M101.19 7.68742C101.049 7.1637 100.55 6.83974 100.078 6.96393C99.6014 7.08811 99.3303 7.61723 99.4712 8.14096C99.6068 8.66469 100.106 8.98864 100.577 8.86446C101.054 8.74028 101.325 8.21655 101.19 7.68742H101.201C101.342 8.21655 101.065 8.75648 100.583 8.88066C100.1 9.01024 99.5959 8.67549 99.455 8.14636C99.314 7.61183 99.5905 7.07731 100.073 6.95313C100.556 6.82355 101.06 7.1529 101.201 7.68742" fill="#FBA07B"/>
<path fill-rule="evenodd" clip-rule="evenodd" d="M101.201 7.68742C101.06 7.1529 100.556 6.82354 100.073 6.95313C99.5906 7.07731 99.3141 7.61183 99.455 8.14636C99.596 8.67549 100.1 9.01024 100.583 8.88066C101.065 8.75647 101.342 8.21655 101.201 7.68742L101.212 7.68202C101.358 8.22195 101.076 8.76727 100.588 8.89685C100.095 9.02644 99.5852 8.69168 99.4442 8.15176C99.2978 7.61183 99.5797 7.06651 100.068 6.93693C100.561 6.80735 101.071 7.1421 101.212 7.68202" fill="#FBA07B"/>
<path fill-rule="evenodd" clip-rule="evenodd" d="M101.212 7.68201C101.071 7.14209 100.561 6.80734 100.068 6.93692C99.5796 7.0665 99.2977 7.61182 99.4441 8.15175C99.585 8.69167 100.095 9.02643 100.588 8.89684C101.076 8.76726 101.358 8.22194 101.212 7.68201H101.228C101.374 8.22734 101.087 8.78346 100.594 8.91304C100.095 9.04262 99.5742 8.70247 99.4278 8.15175C99.2814 7.60102 99.5688 7.0503 100.062 6.92072C100.561 6.79114 101.081 7.13129 101.228 7.68201" fill="#FBA07B"/>
<path fill-rule="evenodd" clip-rule="evenodd" d="M101.228 7.68203C101.081 7.1313 100.561 6.79115 100.062 6.92073C99.5688 7.05032 99.2814 7.60104 99.4278 8.15176C99.5742 8.70249 100.095 9.04264 100.593 8.91306C101.087 8.78347 101.374 8.22735 101.228 7.68203L101.239 7.67663C101.385 8.23275 101.098 8.78887 100.593 8.92386C100.089 9.05884 99.5633 8.71328 99.417 8.15716C99.2706 7.60104 99.5579 7.03952 100.062 6.90454C100.566 6.77496 101.092 7.12051 101.239 7.67663" fill="#FBA07B"/>
<path fill-rule="evenodd" clip-rule="evenodd" d="M101.239 7.67665C101.092 7.12053 100.566 6.77498 100.062 6.90456C99.558 7.03954 99.2706 7.60106 99.417 8.15718C99.5634 8.71331 100.089 9.05886 100.594 8.92388C101.098 8.7889 101.385 8.23277 101.239 7.67665L101.255 7.67125C101.407 8.23817 101.109 8.80509 100.599 8.94007C100.089 9.07505 99.5525 8.7241 99.4007 8.16258C99.2543 7.59566 99.5471 7.02334 100.057 6.88836C100.566 6.75878 101.103 7.10973 101.255 7.67125" fill="#FBA07C"/>
<path fill-rule="evenodd" clip-rule="evenodd" d="M101.255 7.6713C101.103 7.10978 100.566 6.75883 100.057 6.88841C99.5472 7.02339 99.2544 7.59571 99.4008 8.16263C99.5526 8.72415 100.089 9.0751 100.599 8.94012C101.109 8.80514 101.407 8.23822 101.255 7.6713H101.266C101.418 8.24362 101.119 8.82134 100.604 8.95632C100.084 9.0913 99.5417 8.74035 99.3899 8.16263C99.2381 7.59031 99.5363 7.01259 100.051 6.87761C100.572 6.74263 101.114 7.09358 101.266 7.6713" fill="#FBA07C"/>
<path fill-rule="evenodd" clip-rule="evenodd" d="M101.266 7.67131C101.114 7.09359 100.572 6.74264 100.051 6.87763C99.5362 7.01261 99.238 7.59033 99.3898 8.16265C99.5416 8.74037 100.084 9.09132 100.604 8.95633C101.119 8.82135 101.418 8.24363 101.266 7.67131L101.282 7.66591C101.434 8.24903 101.136 8.83215 100.604 8.96713C100.084 9.10751 99.5308 8.75116 99.3736 8.16804C99.2218 7.58493 99.52 7.00181 100.051 6.86143C100.572 6.72105 101.125 7.0828 101.282 7.66591" fill="#FBA17C"/>
<path fill-rule="evenodd" clip-rule="evenodd" d="M101.282 7.66586C101.125 7.08274 100.572 6.72099 100.051 6.86137C99.52 7.00175 99.2218 7.58487 99.3736 8.16799C99.5308 8.7511 100.084 9.10746 100.604 8.96707C101.136 8.83209 101.434 8.24897 101.282 7.66586L101.293 7.66046C101.45 8.24897 101.147 8.84289 100.61 8.98327C100.078 9.12365 99.52 8.7619 99.3628 8.16799C99.2055 7.57947 99.5146 6.98555 100.046 6.85057C100.577 6.70479 101.136 7.07194 101.293 7.66046" fill="#FBA17C"/>
<path fill-rule="evenodd" clip-rule="evenodd" d="M101.293 7.66042C101.136 7.0719 100.577 6.70476 100.046 6.85054C99.5146 6.98552 99.2055 7.57943 99.3628 8.16795C99.52 8.76187 100.078 9.12362 100.61 8.98324C101.147 8.84286 101.45 8.24894 101.293 7.66042H101.309C101.466 8.25974 101.157 8.85366 100.615 8.99944C100.073 9.13981 99.5092 8.77267 99.3465 8.17335C99.1893 7.57404 99.5037 6.97472 100.041 6.83434C100.583 6.69396 101.147 7.06111 101.309 7.66042" fill="#FBA17C"/>
<path fill-rule="evenodd" clip-rule="evenodd" d="M101.309 7.66048C101.146 7.06117 100.582 6.69402 100.04 6.8344C99.5035 6.97478 99.189 7.5741 99.3463 8.17341C99.5089 8.77273 100.073 9.13988 100.615 8.9995C101.157 8.85372 101.466 8.2598 101.309 7.66048L101.32 7.65508C101.482 8.2598 101.168 8.86991 100.62 9.01569C100.073 9.15607 99.4927 8.78353 99.3354 8.17881C99.1728 7.56869 99.4872 6.96398 100.035 6.8182C100.582 6.67242 101.163 7.04497 101.32 7.65508" fill="#FBA17C"/>
<path fill-rule="evenodd" clip-rule="evenodd" d="M101.32 7.65509C101.163 7.04497 100.583 6.67242 100.035 6.8182C99.4875 6.96398 99.1731 7.5687 99.3357 8.17881C99.493 8.78353 100.073 9.15608 100.621 9.0157C101.168 8.86992 101.483 8.2598 101.32 7.65509L101.336 7.64969C101.499 8.2652 101.179 8.88071 100.621 9.03189C100.068 9.17767 99.4821 8.79433 99.3249 8.18421C99.1568 7.5687 99.4767 6.94778 100.035 6.802C100.588 6.65622 101.174 7.03417 101.336 7.64969" fill="#FBA17C"/>
</g>
</g>
<mask id="mask2_133_944" style="mask-type:luminance" maskUnits="userSpaceOnUse" x="99" y="7" width="3" height="3">
<path d="M99.1785 7.53625H101.933V9.18302H99.1785V7.53625Z" fill="white"/>
</mask>
<g mask="url(#mask2_133_944)">
<mask id="mask3_133_944" style="mask-type:luminance" maskUnits="userSpaceOnUse" x="96" y="7" width="8" height="5">
<path d="M101.336 11.7153C102.892 11.305 103.906 9.80941 103.906 8.13025V8.10325C103.917 9.79862 102.898 11.305 101.336 11.7153Z" fill="white"/>
</mask>
<g mask="url(#mask3_133_944)">
<path fill-rule="evenodd" clip-rule="evenodd" d="M101.336 7.64968C101.174 7.03416 100.588 6.65622 100.035 6.802C99.4767 6.94778 99.1568 7.56869 99.3249 8.1842C99.4821 8.79432 100.068 9.17766 100.621 9.03188C101.179 8.88071 101.499 8.26519 101.336 7.64968H101.347C101.51 8.27059 101.19 8.8969 100.626 9.04268C100.062 9.19386 99.4713 8.80512 99.3086 8.1842C99.146 7.56329 99.4659 6.93698 100.03 6.7858C100.594 6.64002 101.185 7.02337 101.347 7.64968" fill="#FBA17C"/>
<path fill-rule="evenodd" clip-rule="evenodd" d="M101.347 7.64972C101.185 7.02341 100.594 6.64006 100.03 6.78584C99.4658 6.93702 99.1459 7.56333 99.3086 8.18425C99.4712 8.80516 100.062 9.19391 100.626 9.04273C101.19 8.89695 101.51 8.27064 101.347 7.64972L101.363 7.64432C101.532 8.27604 101.201 8.90775 100.632 9.05893C100.062 9.2101 99.4604 8.82136 99.2923 8.18965C99.1242 7.55794 99.455 6.92082 100.024 6.77505C100.594 6.62387 101.195 7.01261 101.363 7.64432" fill="#FBA17C"/>
<path fill-rule="evenodd" clip-rule="evenodd" d="M101.363 7.64433C101.195 7.01262 100.594 6.62387 100.024 6.77505C99.455 6.92083 99.1242 7.55794 99.2923 8.18965C99.4604 8.82136 100.062 9.21011 100.631 9.05893C101.201 8.90775 101.532 8.27604 101.363 7.64433L101.374 7.63893C101.542 8.28144 101.212 8.92395 100.637 9.07513C100.057 9.22631 99.4495 8.83216 99.2815 8.18965C99.1134 7.55254 99.4441 6.91003 100.024 6.75885C100.599 6.60767 101.206 7.00182 101.374 7.63893" fill="#FBA17C"/>
<path fill-rule="evenodd" clip-rule="evenodd" d="M101.374 7.63892C101.206 7.00181 100.599 6.60767 100.024 6.75885C99.4442 6.91003 99.1134 7.55254 99.2815 8.18965C99.4496 8.83216 100.057 9.2263 100.637 9.07512C101.212 8.92394 101.542 8.28143 101.374 7.63892H101.391C101.559 8.28683 101.223 8.93474 100.637 9.08592C100.051 9.2425 99.4387 8.84296 99.2652 8.19505C99.0972 7.54714 99.4333 6.89923 100.019 6.74265C100.604 6.58607 101.217 6.99101 101.391 7.63892" fill="#FBA27C"/>
<path fill-rule="evenodd" clip-rule="evenodd" d="M101.391 7.63898C101.217 6.99107 100.604 6.58612 100.019 6.7427C99.4333 6.89928 99.0972 7.54719 99.2653 8.1951C99.4388 8.84301 100.051 9.24255 100.637 9.08597C101.223 8.9348 101.559 8.28689 101.391 7.63898L101.401 7.63358C101.575 8.29228 101.233 8.95099 100.642 9.10217C100.051 9.25875 99.4279 8.85381 99.2544 8.2005C99.0809 7.54179 99.4225 6.88308 100.013 6.7265C100.604 6.57532 101.228 6.97487 101.401 7.63358" fill="#FAA27C"/>
<path fill-rule="evenodd" clip-rule="evenodd" d="M101.401 7.63362C101.228 6.97491 100.604 6.57536 100.013 6.72654C99.4224 6.88312 99.0809 7.54183 99.2544 8.20054C99.4279 8.85385 100.051 9.25879 100.642 9.10221C101.233 8.95103 101.575 8.29232 101.401 7.63362H101.418C101.591 8.29232 101.25 8.96183 100.648 9.11841C100.046 9.27499 99.417 8.86464 99.2435 8.20054C99.0646 7.53643 99.4062 6.87232 100.013 6.71575C100.61 6.55377 101.239 6.96411 101.418 7.63362" fill="#FAA27C"/>
<path fill-rule="evenodd" clip-rule="evenodd" d="M101.418 7.63349C101.239 6.96398 100.61 6.55364 100.013 6.71562C99.4061 6.8722 99.0646 7.5363 99.2435 8.20041C99.417 8.86452 100.046 9.27486 100.648 9.11828C101.25 8.96171 101.591 8.2922 101.418 7.63349L101.428 7.62809C101.607 8.2976 101.26 8.97251 100.648 9.13448C100.04 9.29106 99.4061 8.87532 99.2272 8.20581C99.0483 7.53631 99.3953 6.856 100.008 6.69942C100.615 6.53745 101.25 6.95319 101.428 7.62809" fill="#FAA27D"/>
</g>
</g>
<mask id="mask4_133_944" style="mask-type:luminance" maskUnits="userSpaceOnUse" x="98" y="7" width="4" height="3">
<path d="M98.6309 7.53625H101.933V9.18302H98.6309V7.53625Z" fill="white"/>
</mask>
<g mask="url(#mask4_133_944)">
<mask id="mask5_133_944" style="mask-type:luminance" maskUnits="userSpaceOnUse" x="96" y="7" width="8" height="5">
<path d="M101.336 11.7153C102.893 11.305 103.906 9.80941 103.906 8.13025V8.10325C103.917 9.79862 102.898 11.305 101.336 11.7153Z" fill="white"/>
</mask>
<g mask="url(#mask5_133_944)">
<path fill-rule="evenodd" clip-rule="evenodd" d="M101.429 7.6281C101.25 6.95319 100.615 6.53745 100.008 6.69943C99.3954 6.856 99.0484 7.53631 99.2274 8.20581C99.4063 8.87532 100.041 9.29106 100.648 9.13449C101.261 8.97251 101.608 8.2976 101.429 7.6281L101.439 7.6227C101.624 8.303 101.271 8.9887 100.653 9.14528C100.041 9.31266 99.3954 8.89152 99.2165 8.21121C99.0322 7.52551 99.3846 6.8452 100.003 6.68323C100.615 6.52125 101.261 6.94239 101.439 7.6227" fill="#FAA27D"/>
</g>
</g>
<mask id="mask6_133_944" style="mask-type:luminance" maskUnits="userSpaceOnUse" x="98" y="7" width="4" height="3">
<path d="M98.6309 7.53625H101.933V9.19922H98.6309V7.53625Z" fill="white"/>
</mask>
<g mask="url(#mask6_133_944)">
<mask id="mask7_133_944" style="mask-type:luminance" maskUnits="userSpaceOnUse" x="96" y="7" width="8" height="5">
<path d="M101.336 11.7153C102.893 11.305 103.906 9.80941 103.906 8.13025V8.10325C103.917 9.79862 102.898 11.305 101.336 11.7153Z" fill="white"/>
</mask>
<g mask="url(#mask7_133_944)">
<path fill-rule="evenodd" clip-rule="evenodd" d="M101.439 7.62275C101.261 6.94245 100.615 6.5213 100.003 6.68328C99.3846 6.84526 99.0322 7.52556 99.2165 8.21127C99.3954 8.89157 100.041 9.31271 100.653 9.14534C101.271 8.98876 101.624 8.30305 101.439 7.62275L101.456 7.61735C101.64 8.30845 101.282 8.99956 100.659 9.16154C100.035 9.32351 99.3846 8.90237 99.2002 8.21127C99.0159 7.52556 99.3792 6.83446 99.9972 6.67248C100.621 6.50511 101.271 6.93165 101.456 7.61735" fill="#FAA27D"/>
</g>
</g>
<mask id="mask8_133_944" style="mask-type:luminance" maskUnits="userSpaceOnUse" x="98" y="7" width="4" height="3">
<path d="M98.6309 7.53625H101.933V9.73375H98.6309V7.53625Z" fill="white"/>
</mask>
<g mask="url(#mask8_133_944)">
<mask id="mask9_133_944" style="mask-type:luminance" maskUnits="userSpaceOnUse" x="96" y="7" width="8" height="5">
<path d="M101.336 11.7153C102.893 11.305 103.906 9.80941 103.906 8.13025V8.10325C103.917 9.79862 102.898 11.305 101.336 11.7153Z" fill="white"/>
</mask>
<g mask="url(#mask9_133_944)">
<path fill-rule="evenodd" clip-rule="evenodd" d="M101.456 7.61733C101.271 6.93163 100.621 6.50509 99.9973 6.67247C99.3792 6.83444 99.016 7.52555 99.2003 8.21125C99.3846 8.90235 100.035 9.3235 100.659 9.16152C101.282 8.99954 101.64 8.30844 101.456 7.61733H101.472C101.656 8.31384 101.293 9.01034 100.664 9.17772C100.035 9.34509 99.3738 8.91315 99.1895 8.21665C98.9997 7.52015 99.3684 6.81825 99.9919 6.65627C100.626 6.48889 101.282 6.92083 101.472 7.61733" fill="#FAA27D"/>
<path fill-rule="evenodd" clip-rule="evenodd" d="M101.472 7.61734C101.282 6.92083 100.626 6.4889 99.9919 6.65627C99.3684 6.81825 98.9997 7.52015 99.1895 8.21665C99.3738 8.91316 100.035 9.3451 100.664 9.17772C101.293 9.01034 101.656 8.31384 101.472 7.61734L101.483 7.61194C101.667 8.31924 101.304 9.02654 100.664 9.19392C100.03 9.36129 99.3575 8.92396 99.1732 8.21665C98.9889 7.51475 99.3521 6.80745 99.9919 6.64007C100.626 6.4727 101.299 6.91004 101.483 7.61194" fill="#FAA27D"/>
<path fill-rule="evenodd" clip-rule="evenodd" d="M101.483 7.61197C101.299 6.91007 100.626 6.47273 99.992 6.64011C99.3522 6.80749 98.9889 7.51479 99.1733 8.21669C99.3576 8.92399 100.03 9.36133 100.664 9.19395C101.304 9.02658 101.667 8.31928 101.483 7.61197H101.494C101.684 8.31928 101.315 9.03738 100.67 9.21015C100.024 9.37753 99.3468 8.94019 99.1624 8.22209C98.9727 7.50939 99.3413 6.79669 99.9865 6.62391C100.632 6.45654 101.309 6.89388 101.494 7.61197" fill="#FAA37D"/>
<path fill-rule="evenodd" clip-rule="evenodd" d="M101.494 7.61186C101.309 6.89377 100.632 6.45643 99.9864 6.6238C99.3412 6.79658 98.9725 7.50928 99.1623 8.22198C99.3466 8.94008 100.024 9.37742 100.67 9.21004C101.315 9.03727 101.683 8.31917 101.494 7.61186L101.51 7.60647C101.7 8.32457 101.326 9.05346 100.675 9.22084C100.024 9.39362 99.3358 8.95088 99.146 8.22738C98.9563 7.50388 99.3304 6.78038 99.981 6.6076C100.637 6.44023 101.32 6.88297 101.51 7.60647" fill="#FAA37D"/>
<path fill-rule="evenodd" clip-rule="evenodd" d="M101.51 7.60652C101.32 6.88302 100.637 6.44028 99.981 6.60766C99.3304 6.78044 98.9563 7.50393 99.1461 8.22743C99.3358 8.95093 100.024 9.39367 100.675 9.22089C101.326 9.05352 101.7 8.32462 101.51 7.60652L101.521 7.60112C101.716 8.33002 101.336 9.06432 100.68 9.23709C100.019 9.40987 99.325 8.96173 99.1352 8.23283C98.9401 7.50394 99.3196 6.76964 99.981 6.59686C100.637 6.41868 101.331 6.87222 101.521 7.60112" fill="#FAA37D"/>
<path fill-rule="evenodd" clip-rule="evenodd" d="M101.521 7.6011C101.331 6.8722 100.637 6.41867 99.981 6.59684C99.3196 6.76962 98.9401 7.50392 99.1352 8.23281C99.325 8.96171 100.019 9.40985 100.68 9.23707C101.336 9.0643 101.716 8.33 101.521 7.6011H101.537C101.732 8.3354 101.347 9.0751 100.68 9.25327C100.014 9.42605 99.3142 8.97251 99.119 8.23281C98.9238 7.49852 99.3087 6.75342 99.9756 6.58064C100.643 6.40247 101.342 6.86141 101.537 7.6011" fill="#FAA37D"/>
<path fill-rule="evenodd" clip-rule="evenodd" d="M101.537 7.60111C101.342 6.86141 100.642 6.40247 99.9756 6.58065C99.3087 6.75342 98.9237 7.49852 99.1189 8.23282C99.3141 8.97251 100.014 9.42605 100.68 9.25327C101.347 9.0751 101.732 8.3354 101.537 7.60111L101.548 7.59571C101.749 8.3408 101.358 9.0913 100.686 9.26407C100.014 9.44225 99.3033 8.98331 99.1081 8.23822C98.9075 7.49312 99.2978 6.74262 99.9702 6.56445C100.648 6.38628 101.353 6.85061 101.548 7.59571" fill="#FAA37D"/>
<path fill-rule="evenodd" clip-rule="evenodd" d="M101.548 7.59572C101.353 6.85062 100.648 6.38628 99.9701 6.56446C99.2978 6.74263 98.9075 7.49313 99.1081 8.23823C99.3032 8.98332 100.014 9.44226 100.686 9.26408C101.358 9.09131 101.748 8.34081 101.548 7.59572L101.564 7.59032C101.759 8.34621 101.374 9.10211 100.691 9.28028C100.008 9.45845 99.2924 8.99412 99.0918 8.23823C98.8966 7.48773 99.2816 6.73184 99.9701 6.54826C100.648 6.37009 101.364 6.83982 101.564 7.59032" fill="#FAA37D"/>
<path fill-rule="evenodd" clip-rule="evenodd" d="M101.564 7.59039C101.364 6.8399 100.648 6.37016 99.9701 6.54834C99.2815 6.73191 98.8966 7.48781 99.0918 8.2383C99.2924 8.9942 100.008 9.45853 100.691 9.28036C101.374 9.10218 101.759 8.34629 101.564 7.59039H101.575C101.781 8.35169 101.385 9.11298 100.691 9.29655C100.003 9.48013 99.2815 9.00499 99.0809 8.2437C98.8749 7.48241 99.2707 6.71571 99.9647 6.53754C100.653 6.35396 101.374 6.8237 101.575 7.59039" fill="#FAA37D"/>
<path fill-rule="evenodd" clip-rule="evenodd" d="M101.575 7.59039C101.374 6.8237 100.653 6.35397 99.9648 6.53754C99.2708 6.71572 98.875 7.48241 99.0811 8.2437C99.2817 9.005 100.003 9.48013 100.691 9.29656C101.385 9.11298 101.781 8.35169 101.575 7.59039L101.591 7.58499C101.792 8.35169 101.396 9.12918 100.697 9.31275C100.003 9.49633 99.2708 9.02119 99.0648 8.2491C98.8642 7.47701 99.26 6.70492 99.9594 6.52134C100.659 6.33777 101.385 6.8129 101.591 7.58499" fill="#FAA37D"/>
<path fill-rule="evenodd" clip-rule="evenodd" d="M101.591 7.585C101.385 6.81291 100.659 6.33778 99.9593 6.52135C99.2599 6.70492 98.8641 7.47702 99.0647 8.24911C99.2707 9.0212 100.003 9.49634 100.697 9.31276C101.396 9.12919 101.792 8.35169 101.591 7.585L101.602 7.5796C101.808 8.35709 101.407 9.13998 100.702 9.32356C99.9972 9.51253 99.2599 9.032 99.0538 8.24911C98.8478 7.47162 99.2544 6.69413 99.9539 6.50515C100.659 6.32158 101.396 6.80211 101.602 7.5796" fill="#FAA47D"/>
<path fill-rule="evenodd" clip-rule="evenodd" d="M101.602 7.57951C101.396 6.80202 100.659 6.32149 99.9539 6.50506C99.2545 6.69403 98.8479 7.47153 99.0539 8.24902C99.2599 9.03191 99.9973 9.51244 100.702 9.32347C101.407 9.13989 101.808 8.357 101.602 7.57951H101.618C101.824 8.3624 101.418 9.15609 100.708 9.33967C99.9919 9.52864 99.2491 9.04271 99.0376 8.25442C98.8316 7.46613 99.2382 6.67784 99.9485 6.49426C100.664 6.30529 101.407 6.79122 101.618 7.57951" fill="#FAA47E"/>
<path fill-rule="evenodd" clip-rule="evenodd" d="M101.618 7.57951C101.407 6.79122 100.664 6.30529 99.9485 6.49427C99.2382 6.67784 98.8316 7.46613 99.0376 8.25442C99.2491 9.04271 99.9919 9.52864 100.708 9.33967C101.418 9.15609 101.824 8.3624 101.618 7.57951L101.629 7.57411C101.841 8.3678 101.429 9.16689 100.708 9.35587C99.9919 9.54484 99.2382 9.05351 99.0268 8.25982C98.8153 7.46613 99.2274 6.66704 99.9485 6.47807C100.67 6.28909 101.418 6.78043 101.629 7.57411" fill="#FAA47E"/>
<path fill-rule="evenodd" clip-rule="evenodd" d="M101.629 7.57417C101.418 6.78048 100.67 6.28915 99.9485 6.47812C99.2274 6.66709 98.8154 7.46618 99.0268 8.25987C99.2383 9.05356 99.9919 9.54489 100.708 9.35592C101.429 9.16694 101.841 8.36786 101.629 7.57417L101.646 7.56877C101.857 8.37326 101.44 9.17774 100.713 9.37212C99.9865 9.56109 99.2274 9.06436 99.0106 8.25987C98.7991 7.46078 99.2166 6.6509 99.9431 6.46192C100.67 6.27295 101.429 6.76428 101.646 7.56877" fill="#FAA47E"/>
<path fill-rule="evenodd" clip-rule="evenodd" d="M101.646 7.56876C101.429 6.76428 100.67 6.27294 99.9431 6.46192C99.2165 6.65089 98.7991 7.46078 99.0105 8.25987C99.2274 9.06435 99.9864 9.56108 100.713 9.37211C101.439 9.17774 101.857 8.37325 101.646 7.56876H101.656C101.873 8.37865 101.45 9.19394 100.718 9.38831C99.981 9.57728 99.2165 9.07515 98.9997 8.26527C98.7828 7.45538 99.2057 6.64009 99.9376 6.44572C100.675 6.25135 101.439 6.75348 101.656 7.56876" fill="#FAA47E"/>
<path fill-rule="evenodd" clip-rule="evenodd" d="M101.656 7.56877C101.44 6.75348 100.675 6.25135 99.9377 6.44573C99.2058 6.6401 98.7829 7.45538 98.9998 8.26527C99.2166 9.07516 99.9811 9.57729 100.718 9.38831C101.45 9.19394 101.873 8.37866 101.656 7.56877L101.667 7.56337C101.884 8.38405 101.461 9.20474 100.718 9.39911C99.9811 9.59349 99.2004 9.09136 98.9835 8.27067C98.772 7.44999 99.1949 6.6293 99.9377 6.42953C100.681 6.23515 101.456 6.74268 101.667 7.56337" fill="#F9A47E"/>
<path fill-rule="evenodd" clip-rule="evenodd" d="M101.667 7.5633C101.456 6.74261 100.68 6.23508 99.9377 6.42945C99.1949 6.62923 98.772 7.44991 98.9835 8.2706C99.2003 9.09128 99.9811 9.59341 100.718 9.39904C101.461 9.20467 101.884 8.38398 101.667 7.5633L101.684 7.5579C101.906 8.38398 101.472 9.22086 100.724 9.41524C99.9756 9.60961 99.1895 9.10208 98.9726 8.2706C98.7503 7.44451 99.1841 6.61303 99.9323 6.41866C100.68 6.21888 101.467 6.73181 101.684 7.5579" fill="#F9A47E"/>
<path fill-rule="evenodd" clip-rule="evenodd" d="M101.684 7.558C101.467 6.73192 100.68 6.21899 99.9323 6.41876C99.1841 6.61314 98.7503 7.44462 98.9726 8.2707C99.1895 9.10219 99.9757 9.60972 100.724 9.41534C101.472 9.22097 101.906 8.38409 101.684 7.558H101.7C101.917 8.39489 101.483 9.23177 100.729 9.43154C99.9702 9.62592 99.1786 9.11299 98.9618 8.2761C98.7395 7.43922 99.1732 6.60234 99.9269 6.40257C100.686 6.20279 101.477 6.72112 101.7 7.558" fill="#F9A57E"/>
<path fill-rule="evenodd" clip-rule="evenodd" d="M101.7 7.55789C101.477 6.72101 100.686 6.20268 99.9267 6.40245C99.1731 6.60222 98.7394 7.43911 98.9617 8.27599C99.1785 9.11287 99.9701 9.6258 100.729 9.43143C101.483 9.23166 101.917 8.39477 101.7 7.55789L101.711 7.55249C101.933 8.39477 101.494 9.24245 100.735 9.44223C99.9701 9.6474 99.1677 9.12367 98.9454 8.28139C98.7231 7.43371 99.1623 6.58603 99.9213 6.38625C100.686 6.18648 101.488 6.71021 101.711 7.55249" fill="#F9A57E"/>
<path fill-rule="evenodd" clip-rule="evenodd" d="M101.711 7.55247C101.488 6.71018 100.686 6.18646 99.9214 6.38623C99.1623 6.586 98.7232 7.43368 98.9455 8.28136C99.1678 9.12365 99.9702 9.64737 100.735 9.4422C101.494 9.24243 101.933 8.39475 101.711 7.55247L101.721 7.54707C101.949 8.40015 101.51 9.25863 100.735 9.4584C99.9648 9.66357 99.1569 9.13444 98.9346 8.28136C98.7069 7.43368 99.1461 6.5752 99.9214 6.37543C100.691 6.17026 101.499 6.69399 101.721 7.54707" fill="#F9A57E"/>
<path fill-rule="evenodd" clip-rule="evenodd" d="M101.721 7.54717C101.499 6.69409 100.691 6.17036 99.9214 6.37554C99.1461 6.57531 98.7069 7.43379 98.9347 8.28147C99.1569 9.13455 99.9648 9.66368 100.735 9.4585C101.51 9.25873 101.949 8.40025 101.721 7.54717H101.738C101.965 8.40565 101.521 9.26953 100.74 9.4747C99.9648 9.67987 99.1461 9.14535 98.9184 8.28687C98.6907 7.42839 99.1353 6.56451 99.916 6.35934C100.691 6.15417 101.51 6.68329 101.738 7.54717" fill="#F9A57E"/>
<path fill-rule="evenodd" clip-rule="evenodd" d="M101.738 7.54718C101.51 6.6833 100.691 6.15417 99.916 6.35934C99.1352 6.56451 98.6906 7.42839 98.9183 8.28687C99.1461 9.14535 99.9647 9.67988 100.74 9.47471C101.521 9.26954 101.965 8.40566 101.738 7.54718L101.749 7.54178C101.982 8.41106 101.532 9.28033 100.745 9.49091C99.9593 9.69608 99.1352 9.15615 98.9075 8.29227C98.6744 7.42299 99.1244 6.54832 99.9105 6.34315C100.697 6.13797 101.521 6.6725 101.749 7.54178" fill="#F9A57E"/>
<path fill-rule="evenodd" clip-rule="evenodd" d="M101.748 7.54179C101.521 6.67251 100.697 6.13798 99.9105 6.34316C99.1243 6.54833 98.6743 7.42301 98.9075 8.29228C99.1352 9.15616 99.9593 9.69609 100.745 9.49092C101.532 9.28035 101.982 8.41107 101.748 7.54179L101.765 7.53639C101.998 8.41647 101.542 9.29654 100.751 9.50172C99.9539 9.71229 99.1243 9.17236 98.8912 8.29228C98.6581 7.41761 99.1135 6.53753 99.9105 6.32696C100.702 6.11639 101.532 6.66171 101.765 7.53639" fill="#F9A57E"/>
<path fill-rule="evenodd" clip-rule="evenodd" d="M101.765 7.53641C101.532 6.66173 100.702 6.11641 99.9105 6.32698C99.1135 6.53755 98.6581 7.41763 98.8912 8.29231C99.1243 9.17238 99.9539 9.71231 100.751 9.50174C101.542 9.29657 101.998 8.41649 101.765 7.53641H101.781C102.009 8.42189 101.553 9.30737 100.751 9.51794C99.9485 9.72851 99.1135 9.18318 98.8749 8.29771C98.6472 7.41223 99.1027 6.52675 99.9051 6.31618C100.708 6.10561 101.542 6.65094 101.781 7.53641" fill="#F9A57E"/>
<path fill-rule="evenodd" clip-rule="evenodd" d="M101.781 7.53631C101.543 6.65083 100.708 6.10551 99.9052 6.31608C99.1028 6.52665 98.6473 7.41212 98.875 8.2976C99.1136 9.18308 99.9486 9.7284 100.751 9.51783C101.553 9.30726 102.009 8.42178 101.781 7.53631L101.792 7.53091C102.031 8.42718 101.564 9.32346 100.756 9.53403C99.9486 9.7446 99.1028 9.19388 98.8642 8.303C98.6256 7.40672 99.0919 6.51045 99.8998 6.29988C100.708 6.08391 101.553 6.64003 101.792 7.53091" fill="#F9A57F"/>
<path fill-rule="evenodd" clip-rule="evenodd" d="M101.792 7.53091C101.553 6.64003 100.708 6.08391 99.8997 6.29988C99.0919 6.51045 98.6256 7.40673 98.8642 8.303C99.1027 9.19388 99.9485 9.7446 100.756 9.53403C101.564 9.32346 102.031 8.42718 101.792 7.53091L101.803 7.52551C102.041 8.42718 101.575 9.33426 100.762 9.55023C99.9431 9.7608 99.0919 9.20468 98.8533 8.303C98.6148 7.40133 99.0811 6.49965 99.8997 6.28368C100.713 6.06771 101.564 6.62924 101.803 7.52551" fill="#F9A67F"/>
<path fill-rule="evenodd" clip-rule="evenodd" d="M101.803 7.52554C101.564 6.62927 100.713 6.06775 99.8996 6.28372C99.0809 6.49969 98.6147 7.40136 98.8532 8.30304C99.0918 9.20471 99.943 9.76083 100.762 9.55026C101.575 9.33429 102.041 8.42722 101.803 7.52554H101.819C102.058 8.43262 101.586 9.34509 100.762 9.56646C99.943 9.78243 99.0809 9.22091 98.837 8.30844C98.5984 7.40136 99.0701 6.48349 99.8942 6.26752C100.713 6.05155 101.575 6.61307 101.819 7.52554" fill="#F9A67F"/>
<path fill-rule="evenodd" clip-rule="evenodd" d="M101.819 7.52555C101.575 6.61308 100.713 6.05156 99.8943 6.26753C99.0702 6.4835 98.5985 7.40137 98.837 8.30844C99.081 9.22092 99.9431 9.78244 100.762 9.56647C101.586 9.3451 102.058 8.43263 101.819 7.52555L101.83 7.52015C102.074 8.43803 101.597 9.3613 100.767 9.57727C99.9377 9.79324 99.0702 9.23172 98.8262 8.30844C98.5822 7.39057 99.0593 6.4727 99.8889 6.25133C100.718 6.03536 101.586 6.60228 101.83 7.52015" fill="#F9A67F"/>
<path fill-rule="evenodd" clip-rule="evenodd" d="M101.83 7.52008C101.586 6.6022 100.718 6.03528 99.8889 6.25125C99.0593 6.47262 98.5822 7.39049 98.8262 8.30837C99.0702 9.23164 99.9377 9.79316 100.767 9.57719C101.597 9.36122 102.074 8.43795 101.83 7.52008L101.846 7.51468C102.09 8.44335 101.608 9.37202 100.773 9.59339C99.9322 9.81475 99.0539 9.24244 98.8099 8.31376C98.5659 7.39049 99.0485 6.46182 99.8834 6.24045C100.724 6.01909 101.602 6.59141 101.846 7.51468" fill="#F9A67F"/>
<path fill-rule="evenodd" clip-rule="evenodd" d="M101.846 7.51479C101.602 6.59152 100.724 6.0192 99.8834 6.24057C99.0484 6.46193 98.5659 7.3906 98.8099 8.31388C99.0539 9.24255 99.9322 9.81487 100.773 9.5935C101.608 9.37213 102.09 8.44346 101.846 7.51479H101.857C102.106 8.44886 101.624 9.38833 100.778 9.60969C99.9322 9.83106 99.043 9.25334 98.799 8.31928C98.5496 7.38521 99.0322 6.44574 99.878 6.22437C100.724 6.003 101.613 6.58072 101.857 7.51479" fill="#F9A67F"/>
</g>
</g>
<mask id="mask10_133_944" style="mask-type:luminance" maskUnits="userSpaceOnUse" x="98" y="7" width="5" height="3">
<path d="M98.6309 7.53625H102.367V9.73375H98.6309V7.53625Z" fill="white"/>
</mask>
<g mask="url(#mask10_133_944)">
<mask id="mask11_133_944" style="mask-type:luminance" maskUnits="userSpaceOnUse" x="96" y="7" width="8" height="5">
<path d="M101.336 11.7153C102.893 11.305 103.906 9.80941 103.906 8.13025V8.10325C103.917 9.79862 102.898 11.305 101.336 11.7153Z" fill="white"/>
</mask>
<g mask="url(#mask11_133_944)">
<path fill-rule="evenodd" clip-rule="evenodd" d="M101.857 7.51472C101.613 6.58065 100.724 6.00293 99.878 6.2243C99.0322 6.44567 98.5497 7.38514 98.7991 8.31921C99.0431 9.25328 99.9322 9.83099 100.778 9.60963C101.624 9.38826 102.106 8.44879 101.857 7.51472L101.873 7.50932C102.123 8.45419 101.635 9.39905 100.778 9.62582C99.9268 9.84719 99.0322 9.26407 98.7828 8.31921C98.5334 7.37974 99.0214 6.43487 99.878 6.2081C100.729 5.98673 101.624 6.56445 101.873 7.50932" fill="#F9A67F"/>
<path fill-rule="evenodd" clip-rule="evenodd" d="M101.873 7.50933C101.624 6.56446 100.729 5.98674 99.878 6.20811C99.0214 6.43488 98.5334 7.37975 98.7828 8.31922C99.0322 9.26408 99.9268 9.8472 100.778 9.62583C101.635 9.39906 102.123 8.4542 101.873 7.50933L101.884 7.50393C102.134 8.4596 101.646 9.40986 100.783 9.63663C99.9268 9.8634 99.0214 9.27488 98.772 8.32462C98.5226 7.37435 99.0106 6.41868 99.8726 6.19191C100.729 5.97054 101.635 6.55366 101.884 7.50393" fill="#F9A67F"/>
<path fill-rule="evenodd" clip-rule="evenodd" d="M101.884 7.50384C101.635 6.55358 100.729 5.97046 99.8726 6.19183C99.0105 6.41859 98.5225 7.37426 98.7719 8.32453C99.0213 9.2748 99.9268 9.86331 100.783 9.63655C101.645 9.40978 102.133 8.45951 101.884 7.50384H101.9C102.155 8.45951 101.656 9.42597 100.789 9.65274C99.9214 9.87951 99.0105 9.29099 98.7557 8.32993C98.5008 7.36886 98.9997 6.4078 99.8671 6.18103C100.735 5.94886 101.645 6.54278 101.9 7.50384" fill="#F9A67F"/>
<path fill-rule="evenodd" clip-rule="evenodd" d="M101.9 7.50384C101.645 6.54278 100.735 5.94886 99.8671 6.18103C98.9996 6.4078 98.5008 7.36886 98.7557 8.32993C99.0105 9.29099 99.9213 9.87951 100.789 9.65274C101.656 9.42598 102.155 8.45951 101.9 7.50384L101.911 7.49845C102.166 8.46491 101.667 9.43677 100.794 9.66894C99.9159 9.90111 98.9996 9.30179 98.7448 8.32993C98.49 7.36346 98.9888 6.397 99.8671 6.16483C100.74 5.93266 101.656 6.53198 101.911 7.49845" fill="#F9A77F"/>
<path fill-rule="evenodd" clip-rule="evenodd" d="M101.911 7.49856C101.656 6.53209 100.74 5.93277 99.8671 6.16494C98.9888 6.39711 98.49 7.36357 98.7448 8.33004C98.9996 9.3019 99.9159 9.90122 100.794 9.66905C101.667 9.43688 102.166 8.46502 101.911 7.49856H101.927C102.182 8.47042 101.678 9.44768 100.794 9.67985C99.9159 9.91202 98.9888 9.3127 98.734 8.33544C98.4737 7.35818 98.978 6.38091 99.8617 6.14874C100.74 5.91658 101.667 6.52129 101.927 7.49856" fill="#F9A77F"/>
</g>
</g>
<mask id="mask12_133_944" style="mask-type:luminance" maskUnits="userSpaceOnUse" x="98" y="7" width="5" height="4">
<path d="M98.6309 7.53625H102.367V10.2845H98.6309V7.53625Z" fill="white"/>
</mask>
<g mask="url(#mask12_133_944)">
<mask id="mask13_133_944" style="mask-type:luminance" maskUnits="userSpaceOnUse" x="96" y="7" width="8" height="5">
<path d="M101.336 11.7153C102.893 11.305 103.906 9.80941 103.906 8.13025V8.10325C103.917 9.79862 102.898 11.305 101.336 11.7153Z" fill="white"/>
</mask>
<g mask="url(#mask13_133_944)">
<path fill-rule="evenodd" clip-rule="evenodd" d="M101.927 7.49861C101.667 6.52134 100.74 5.91663 99.8617 6.14879C98.978 6.38096 98.4738 7.35823 98.734 8.33549C98.9888 9.31275 99.916 9.91207 100.794 9.6799C101.678 9.44773 102.182 8.47047 101.927 7.49861L101.938 7.49321C102.199 8.47587 101.689 9.46393 100.8 9.6961C99.9105 9.92827 98.978 9.32355 98.7177 8.34089C98.4575 7.35823 98.9671 6.37016 99.8563 6.138C100.746 5.90043 101.678 6.51054 101.938 7.49321" fill="#F8A77F"/>
<path fill-rule="evenodd" clip-rule="evenodd" d="M101.938 7.49314C101.678 6.51047 100.745 5.90036 99.8563 6.13792C98.9671 6.37009 98.4575 7.35815 98.7177 8.34082C98.978 9.32348 99.9105 9.9282 100.8 9.69603C101.689 9.46386 102.199 8.4758 101.938 7.49314L101.955 7.48774C102.215 8.4812 101.7 9.47466 100.805 9.71223C99.9051 9.94979 98.9671 9.33428 98.7015 8.34082C98.4412 7.35275 98.9563 6.35929 99.8563 6.12173C100.751 5.88416 101.689 6.49427 101.955 7.48774" fill="#F8A77F"/>
</g>
</g>
<mask id="mask14_133_944" style="mask-type:luminance" maskUnits="userSpaceOnUse" x="98" y="7" width="5" height="4">
<path d="M98.2026 7.53625H102.367V10.2845H98.2026V7.53625Z" fill="white"/>
</mask>
<g mask="url(#mask14_133_944)">
<mask id="mask15_133_944" style="mask-type:luminance" maskUnits="userSpaceOnUse" x="96" y="7" width="8" height="5">
<path d="M101.336 11.7153C102.893 11.305 103.906 9.80941 103.906 8.13025V8.10325C103.917 9.79862 102.898 11.305 101.336 11.7153Z" fill="white"/>
</mask>
<g mask="url(#mask15_133_944)">
<path fill-rule="evenodd" clip-rule="evenodd" d="M101.955 7.48784C101.689 6.49438 100.751 5.88427 99.8563 6.12183C98.9563 6.3594 98.4412 7.35286 98.7015 8.34092C98.9671 9.33439 99.9051 9.9499 100.805 9.71233C101.7 9.47477 102.215 8.4813 101.955 7.48784H101.965C102.231 8.4867 101.711 9.49097 100.805 9.72853C99.9051 9.9661 98.9563 9.34519 98.6906 8.34632C98.425 7.34746 98.9454 6.3432 99.8509 6.10564C100.751 5.86807 101.7 6.48358 101.965 7.48784" fill="#F8A77F"/>
<path fill-rule="evenodd" clip-rule="evenodd" d="M101.965 7.48785C101.7 6.48359 100.751 5.86808 99.8508 6.10564C98.9454 6.34321 98.4249 7.34747 98.6905 8.34633C98.9562 9.34519 99.905 9.96611 100.805 9.72854C101.71 9.49097 102.231 8.48671 101.965 7.48785L101.982 7.48245C102.247 8.48671 101.721 9.50177 100.81 9.74474C99.8996 9.9823 98.9454 9.35599 98.6797 8.35173C98.4086 7.34207 98.9345 6.33241 99.8454 6.08945C100.756 5.85188 101.71 6.47279 101.982 7.48245" fill="#F8A780"/>
<path fill-rule="evenodd" clip-rule="evenodd" d="M101.982 7.48246C101.711 6.4728 100.756 5.85189 99.8455 6.08946C98.9346 6.33242 98.4087 7.34208 98.6798 8.35174C98.9455 9.356 99.8997 9.98231 100.811 9.74475C101.721 9.50178 102.247 8.48672 101.982 7.48246L101.993 7.47706C102.258 8.49212 101.732 9.51258 100.816 9.75554C99.8997 9.99851 98.9346 9.3722 98.6635 8.35174C98.3979 7.33668 98.9238 6.31622 99.8401 6.07326C100.762 5.83569 101.721 6.462 101.993 7.47706" fill="#F8A780"/>
<path fill-rule="evenodd" clip-rule="evenodd" d="M101.992 7.4771C101.721 6.46204 100.762 5.83573 99.84 6.07329C98.9237 6.31626 98.3978 7.33672 98.6635 8.35178C98.9346 9.37223 99.8996 9.99854 100.816 9.75558C101.732 9.51261 102.258 8.49216 101.992 7.4771H102.009C102.274 8.49756 101.743 9.52881 100.821 9.77178C99.8942 10.0147 98.9183 9.38303 98.6472 8.35717C98.3815 7.33132 98.9129 6.30546 99.8346 6.06249C100.762 5.81413 101.738 6.45124 102.009 7.4771" fill="#F8A780"/>
<path fill-rule="evenodd" clip-rule="evenodd" d="M102.009 7.47697C101.738 6.45112 100.762 5.814 99.8346 6.06237C98.9129 6.30533 98.3816 7.33119 98.6472 8.35705C98.9183 9.3829 99.8943 10.0146 100.821 9.77165C101.743 9.52869 102.274 8.49743 102.009 7.47697L102.02 7.47157C102.291 8.50283 101.759 9.53948 100.821 9.78785C99.8888 10.0308 98.9075 9.3937 98.6364 8.36245C98.3653 7.33119 98.8966 6.29454 99.8346 6.04617C100.767 5.80321 101.749 6.44032 102.02 7.47157" fill="#F8A880"/>
<path fill-rule="evenodd" clip-rule="evenodd" d="M102.02 7.47158C101.749 6.44033 100.767 5.80321 99.8347 6.04618C98.8967 6.29455 98.3654 7.3312 98.6365 8.36246C98.9076 9.39371 99.8889 10.0308 100.821 9.78786C101.759 9.53949 102.291 8.50284 102.02 7.47158L102.031 7.46618C102.307 8.50824 101.77 9.55569 100.827 9.79866C99.8889 10.047 98.8967 9.40451 98.6256 8.36246C98.3491 7.3258 98.8859 6.27835 99.8293 6.02998C100.773 5.78162 101.759 6.42953 102.031 7.46618" fill="#F8A880"/>
<path fill-rule="evenodd" clip-rule="evenodd" d="M102.03 7.46622C101.759 6.42956 100.773 5.78165 99.8292 6.03002C98.8858 6.27838 98.349 7.32584 98.6255 8.36249C98.8966 9.40455 99.8888 10.0471 100.827 9.79869C101.77 9.55573 102.307 8.50827 102.03 7.46622H102.047C102.323 8.51367 101.781 9.56653 100.832 9.81489C99.8834 10.0687 98.8858 9.42074 98.6092 8.36789C98.3327 7.32044 98.8749 6.26759 99.8237 6.01382C100.773 5.76546 101.77 6.41336 102.047 7.46622" fill="#F8A880"/>
<path fill-rule="evenodd" clip-rule="evenodd" d="M102.047 7.46627C101.77 6.41341 100.773 5.7655 99.8238 6.01387C98.875 6.26763 98.3328 7.32049 98.6093 8.36794C98.8858 9.42079 99.8834 10.0687 100.832 9.81494C101.781 9.56657 102.323 8.51372 102.047 7.46627L102.063 7.46087C102.339 8.51912 101.792 9.57737 100.832 9.83114C99.878 10.0849 98.875 9.43159 98.5984 8.37334C98.3165 7.31509 98.8641 6.25144 99.8238 6.00307C100.778 5.74931 101.781 6.40261 102.063 7.46087" fill="#F8A880"/>
<path fill-rule="evenodd" clip-rule="evenodd" d="M102.063 7.46075C101.781 6.40249 100.778 5.74919 99.8238 6.00295C98.8641 6.25132 98.3165 7.31497 98.5984 8.37322C98.875 9.43147 99.878 10.0848 100.832 9.83102C101.792 9.57725 102.339 8.519 102.063 7.46075L102.074 7.45535C102.356 8.5244 101.803 9.59345 100.838 9.84721C99.878 10.0956 98.8641 9.44227 98.5822 8.37322C98.3002 7.30957 98.8533 6.24052 99.8184 5.98675C100.783 5.73299 101.792 6.3917 102.074 7.45535" fill="#F8A880"/>
<path fill-rule="evenodd" clip-rule="evenodd" d="M102.074 7.45546C101.792 6.39181 100.783 5.7331 99.8183 5.98687C98.8532 6.24063 98.3002 7.30968 98.5821 8.37333C98.8641 9.44238 99.8779 10.0957 100.838 9.84733C101.803 9.59356 102.356 8.52451 102.074 7.45546H102.085C102.372 8.52991 101.814 9.60436 100.843 9.85813C99.8725 10.1173 98.8532 9.45318 98.5713 8.37873C98.2839 7.30428 98.8424 6.22983 99.8129 5.97067C100.783 5.7169 101.803 6.38101 102.085 7.45546" fill="#F8A880"/>
<path fill-rule="evenodd" clip-rule="evenodd" d="M102.085 7.45538C101.803 6.38094 100.783 5.71683 99.813 5.97059C98.8425 6.22976 98.284 7.30421 98.5714 8.37866C98.8533 9.45311 99.8726 10.1172 100.843 9.85805C101.814 9.60429 102.372 8.52984 102.085 7.45538L102.101 7.44999C102.388 8.52983 101.824 9.61508 100.843 9.87425C99.8672 10.1334 98.8425 9.4639 98.5551 8.38406C98.2732 7.29881 98.8316 6.21356 99.813 5.95979C100.789 5.70063 101.814 6.37014 102.101 7.44999" fill="#F8A880"/>
<path fill-rule="evenodd" clip-rule="evenodd" d="M102.101 7.44999C101.814 6.37014 100.789 5.70063 99.8129 5.9598C98.8316 6.21356 98.2731 7.29881 98.5551 8.38406C98.8424 9.46391 99.8671 10.1334 100.843 9.87425C101.824 9.61509 102.388 8.52984 102.101 7.44999L102.112 7.44459C102.405 8.53524 101.835 9.63129 100.848 9.89045C99.8671 10.1496 98.8316 9.47471 98.5442 8.38406C98.2514 7.29881 98.8207 6.20276 99.8075 5.9436C100.794 5.68444 101.824 6.35934 102.112 7.44459" fill="#F8A980"/>
<path fill-rule="evenodd" clip-rule="evenodd" d="M102.112 7.44463C101.824 6.35938 100.794 5.68447 99.8075 5.94364C98.8207 6.2028 98.2514 7.29885 98.5442 8.3841C98.8316 9.47474 99.8671 10.1496 100.848 9.89049C101.835 9.63132 102.405 8.53527 102.112 7.44463H102.128C102.415 8.54067 101.846 9.64212 100.854 9.90668C99.8617 10.1658 98.8207 9.49094 98.5279 8.38949C98.2406 7.29345 98.8099 6.192 99.8021 5.92744C100.794 5.66827 101.835 6.34318 102.128 7.44463" fill="#F8A980"/>
<path fill-rule="evenodd" clip-rule="evenodd" d="M102.128 7.44464C101.835 6.34319 100.794 5.66829 99.8021 5.92745C98.8099 6.19201 98.2407 7.29346 98.528 8.38951C98.8208 9.49095 99.8618 10.1659 100.854 9.90669C101.846 9.64213 102.415 8.54069 102.128 7.44464L102.139 7.43924C102.432 8.54609 101.857 9.65833 100.859 9.91749C99.8563 10.1821 98.8099 9.50175 98.5172 8.39491C98.2244 7.28806 98.7991 6.17581 99.7967 5.91125C100.8 5.64669 101.846 6.33239 102.139 7.43924" fill="#F8A980"/>
<path fill-rule="evenodd" clip-rule="evenodd" d="M102.139 7.43924C101.846 6.3324 100.8 5.6467 99.7966 5.91126C98.799 6.17582 98.2243 7.28807 98.5171 8.39491C98.8099 9.50176 99.8563 10.1821 100.859 9.9175C101.857 9.65834 102.432 8.54609 102.139 7.43924L102.155 7.43385C102.448 8.55149 101.873 9.66913 100.865 9.9337C99.8563 10.1983 98.799 9.51255 98.5008 8.39491C98.2081 7.28267 98.7828 6.16502 99.7912 5.89506C100.805 5.6305 101.857 6.3216 102.155 7.43385" fill="#F8A981"/>
<path fill-rule="evenodd" clip-rule="evenodd" d="M102.155 7.43388C101.857 6.32163 100.805 5.63053 99.7912 5.89509C98.7828 6.16505 98.2081 7.2827 98.5008 8.39494C98.799 9.51258 99.8563 10.1983 100.865 9.93373C101.873 9.66916 102.448 8.55152 102.155 7.43388H102.166C102.464 8.55692 101.884 9.67996 100.865 9.94992C99.8509 10.2145 98.7882 9.52338 98.49 8.40034C98.1918 7.2773 98.7719 6.14886 99.7912 5.88429C100.805 5.61433 101.868 6.31083 102.166 7.43388" fill="#F8A981"/>
<path fill-rule="evenodd" clip-rule="evenodd" d="M102.166 7.43381C101.868 6.31076 100.805 5.61426 99.7913 5.88422C98.772 6.14879 98.1918 7.27723 98.49 8.40027C98.7882 9.52331 99.8509 10.2144 100.865 9.94985C101.884 9.67989 102.464 8.55685 102.166 7.43381L102.182 7.42841C102.48 8.56225 101.895 9.69609 100.87 9.96605C99.8455 10.236 98.772 9.53411 98.4738 8.40567C98.1756 7.27183 98.7611 6.13799 99.7859 5.86802C100.811 5.59806 101.884 6.29457 102.182 7.42841" fill="#F8A981"/>
<path fill-rule="evenodd" clip-rule="evenodd" d="M102.182 7.42841C101.884 6.29457 100.81 5.59807 99.7858 5.86803C98.761 6.13799 98.1755 7.27183 98.4737 8.40567C98.7719 9.53412 99.8454 10.236 100.87 9.96606C101.895 9.69609 102.48 8.56225 102.182 7.42841L102.193 7.42301C102.497 8.56225 101.906 9.70689 100.876 9.97685C99.8454 10.2522 98.761 9.54492 98.4628 8.40567C98.1592 7.26643 98.7502 6.12719 99.7803 5.85183C100.816 5.58187 101.895 6.28377 102.193 7.42301" fill="#F7A981"/>
<path fill-rule="evenodd" clip-rule="evenodd" d="M102.193 7.423C101.895 6.28376 100.816 5.58186 99.7804 5.85182C98.7502 6.12718 98.1592 7.26642 98.4629 8.40567C98.7611 9.54491 99.8454 10.2522 100.876 9.97685C101.906 9.70688 102.497 8.56224 102.193 7.423H102.209C102.513 8.56764 101.917 9.72308 100.876 9.99304C99.84 10.2684 98.7502 9.5557 98.452 8.41106C98.1484 7.26642 98.7394 6.11099 99.7804 5.83562C100.816 5.56566 101.906 6.27296 102.209 7.423" fill="#F7A981"/>
<path fill-rule="evenodd" clip-rule="evenodd" d="M102.209 7.42305C101.906 6.27301 100.816 5.56571 99.7804 5.83567C98.7394 6.11103 98.1484 7.26647 98.452 8.41111C98.7502 9.55575 99.84 10.2685 100.876 9.99309C101.917 9.72313 102.513 8.56769 102.209 7.42305L102.22 7.41765C102.529 8.57309 101.927 9.73392 100.881 10.0093C99.8346 10.2846 98.7394 9.57195 98.4358 8.41651C98.1321 7.25567 98.7285 6.10023 99.7749 5.82487C100.821 5.54951 101.917 6.26221 102.22 7.41765" fill="#F7AA81"/>
<path fill-rule="evenodd" clip-rule="evenodd" d="M102.22 7.41765C101.917 6.26221 100.821 5.54951 99.775 5.82488C98.7286 6.10024 98.1322 7.25568 98.4358 8.41651C98.7394 9.57195 99.8346 10.2847 100.881 10.0093C101.927 9.73393 102.529 8.57309 102.22 7.41765L102.236 7.41225C102.54 8.57849 101.938 9.74473 100.886 10.0255C99.8346 10.3009 98.734 9.58275 98.4195 8.41651C98.1159 7.25568 98.7177 6.08404 99.7696 5.80868C100.821 5.53332 101.927 6.25142 102.236 7.41225" fill="#F7AA81"/>
<path fill-rule="evenodd" clip-rule="evenodd" d="M102.236 7.41225C101.927 6.25141 100.821 5.53331 99.7695 5.80867C98.7176 6.08403 98.1158 7.25567 98.4194 8.41651C98.7339 9.58274 99.8345 10.3008 100.886 10.0255C101.938 9.74472 102.54 8.57848 102.236 7.41225H102.247C102.556 8.58388 101.949 9.76092 100.892 10.0363C99.8291 10.317 98.7176 9.59354 98.4086 8.42191C98.0996 7.25027 98.7068 6.07323 99.7641 5.79247C100.827 5.51711 101.938 6.24061 102.247 7.41225" fill="#F7AA81"/>
<path fill-rule="evenodd" clip-rule="evenodd" d="M102.247 7.41217C101.938 6.24053 100.827 5.51703 99.7641 5.79239C98.7068 6.07315 98.0996 7.25019 98.4086 8.42183C98.7177 9.59346 99.8292 10.317 100.892 10.0362C101.949 9.76084 102.556 8.5838 102.247 7.41217L102.258 7.40677C102.573 8.5892 101.96 9.77164 100.892 10.0524C99.8237 10.3332 98.7068 9.60426 98.3978 8.42722C98.0833 7.24479 98.696 6.06236 99.7641 5.78159C100.832 5.50083 101.949 6.22973 102.258 7.40677" fill="#F7AA81"/>
<path fill-rule="evenodd" clip-rule="evenodd" d="M102.258 7.40683C101.949 6.22979 100.832 5.5009 99.7641 5.78166C98.696 6.06242 98.0833 7.24485 98.3978 8.42729C98.7068 9.60432 99.8237 10.3332 100.892 10.0525C101.96 9.7717 102.573 8.58927 102.258 7.40683L102.274 7.40143C102.589 8.59466 101.971 9.7825 100.897 10.0687C99.8237 10.3494 98.696 9.61512 98.3815 8.42729C98.067 7.23945 98.6851 6.04622 99.7586 5.76546C100.832 5.4793 101.96 6.2136 102.274 7.40143" fill="#F7AA81"/>
</g>
</g>
<mask id="mask16_133_944" style="mask-type:luminance" maskUnits="userSpaceOnUse" x="98" y="7" width="5" height="4">
<path d="M98.2026 7.53625H102.486V10.2845H98.2026V7.53625Z" fill="white"/>
</mask>
<g mask="url(#mask16_133_944)">
<mask id="mask17_133_944" style="mask-type:luminance" maskUnits="userSpaceOnUse" x="96" y="7" width="8" height="5">
<path d="M101.336 11.7153C102.893 11.305 103.906 9.80941 103.906 8.13025V8.10325C103.917 9.79862 102.898 11.305 101.336 11.7153Z" fill="white"/>
</mask>
<g mask="url(#mask17_133_944)">
<path fill-rule="evenodd" clip-rule="evenodd" d="M102.274 7.40142C101.96 6.21358 100.832 5.47928 99.7587 5.76544C98.6852 6.0462 98.0671 7.23944 98.3816 8.42727C98.696 9.61511 99.8238 10.3494 100.897 10.0686C101.971 9.78248 102.589 8.59465 102.274 7.40142H102.291C102.605 8.59465 101.982 9.79868 100.903 10.0848C99.8183 10.371 98.6852 9.62591 98.3653 8.43267C98.0508 7.23404 98.6743 6.03541 99.7533 5.74925C100.838 5.46309 101.971 6.20278 102.291 7.40142" fill="#F7AA81"/>
<path fill-rule="evenodd" clip-rule="evenodd" d="M102.291 7.4013C101.971 6.20267 100.838 5.46297 99.7533 5.74913C98.6744 6.03529 98.0509 7.23392 98.3653 8.43255C98.6852 9.62579 99.8184 10.3709 100.903 10.0847C101.982 9.79856 102.605 8.59453 102.291 7.4013L102.302 7.3959C102.621 8.59993 101.993 9.80936 100.908 10.0955C99.8129 10.3871 98.6744 9.64198 98.3545 8.43795C98.0346 7.22852 98.6635 6.02449 99.7533 5.73293C100.843 5.44677 101.982 6.19187 102.302 7.3959" fill="#F7AA81"/>
<path fill-rule="evenodd" clip-rule="evenodd" d="M102.301 7.39595C101.982 6.19192 100.843 5.44682 99.7532 5.73298C98.6634 6.02454 98.0345 7.22857 98.3544 8.438C98.6743 9.64203 99.8129 10.3871 100.908 10.0956C101.992 9.80941 102.621 8.59998 102.301 7.39595L102.312 7.39055C102.638 8.60538 102.009 9.82561 100.908 10.1118C99.8129 10.3979 98.6634 9.65283 98.3435 8.438C98.0237 7.22317 98.6472 6.00834 99.7478 5.72218C100.843 5.43062 101.992 6.18112 102.312 7.39055" fill="#F7AA81"/>
<path fill-rule="evenodd" clip-rule="evenodd" d="M102.312 7.39053C101.993 6.1811 100.843 5.43061 99.7479 5.72217C98.6473 6.00833 98.0238 7.22316 98.3436 8.43799C98.6635 9.65282 99.813 10.3979 100.908 10.1118C102.009 9.8256 102.638 8.60537 102.312 7.39053H102.329C102.654 8.61077 102.02 9.83639 100.914 10.128C99.8075 10.4195 98.6527 9.66362 98.3274 8.44339C98.0021 7.22316 98.6364 5.99753 99.7425 5.70597C100.849 5.41441 102.003 6.17031 102.329 7.39053" fill="#F7AB81"/>
<path fill-rule="evenodd" clip-rule="evenodd" d="M102.329 7.39054C102.003 6.17031 100.848 5.41442 99.7424 5.70598C98.6364 5.99754 98.002 7.22316 98.3274 8.44339C98.6527 9.66362 99.8075 10.4195 100.914 10.128C102.02 9.8364 102.654 8.61077 102.329 7.39054L102.345 7.38514C102.665 8.61617 102.03 9.8472 100.919 10.1442C99.8075 10.4357 98.6418 9.67442 98.3165 8.44879C97.9912 7.21777 98.6256 5.98134 99.7424 5.68978C100.848 5.39822 102.014 6.15951 102.345 7.38514" fill="#F7AB82"/>
<path fill-rule="evenodd" clip-rule="evenodd" d="M102.345 7.38519C102.014 6.15957 100.848 5.39827 99.7423 5.68983C98.6254 5.98139 97.9911 7.21782 98.3164 8.44885C98.6417 9.67447 99.8074 10.4358 100.919 10.1442C102.03 9.84725 102.665 8.61622 102.345 7.38519L102.356 7.37979C102.681 8.62162 102.041 9.86345 100.919 10.1604C99.802 10.452 98.6254 9.68527 98.3001 8.44885C97.9748 7.21242 98.6146 5.97059 99.7369 5.67363C100.854 5.38207 102.03 6.14337 102.356 7.37979" fill="#F7AB82"/>
<path fill-rule="evenodd" clip-rule="evenodd" d="M102.356 7.37979C102.03 6.14336 100.854 5.38207 99.737 5.67363C98.6146 5.97058 97.9749 7.21241 98.3002 8.44884C98.6255 9.68527 99.802 10.452 100.919 10.1604C102.041 9.86344 102.681 8.62161 102.356 7.37979H102.367C102.697 8.62702 102.052 9.87424 100.924 10.1712C99.7966 10.4682 98.6146 9.70146 98.2893 8.45424C97.9586 7.20701 98.6038 5.95439 99.7315 5.65743C100.859 5.36587 102.041 6.13256 102.367 7.37979" fill="#F7AB82"/>
</g>
</g>
<mask id="mask18_133_944" style="mask-type:luminance" maskUnits="userSpaceOnUse" x="98" y="7" width="5" height="4">
<path d="M98.0779 7.53625H102.486V10.2845H98.0779V7.53625Z" fill="white"/>
</mask>
<g mask="url(#mask18_133_944)">
<mask id="mask19_133_944" style="mask-type:luminance" maskUnits="userSpaceOnUse" x="96" y="7" width="8" height="5">
<path d="M101.336 11.7153C102.892 11.305 103.906 9.80941 103.906 8.13025V8.10325C103.917 9.79862 102.898 11.305 101.336 11.7153Z" fill="white"/>
</mask>
<g mask="url(#mask19_133_944)">
<path fill-rule="evenodd" clip-rule="evenodd" d="M102.366 7.37984C102.041 6.13261 100.859 5.36592 99.7313 5.65748C98.6036 5.95444 97.9584 7.20706 98.2891 8.45429C98.6144 9.70151 99.7964 10.4682 100.924 10.1712C102.052 9.87429 102.697 8.62707 102.366 7.37984L102.383 7.37444C102.713 8.62707 102.063 9.89049 100.93 10.1874C99.7964 10.4844 98.6036 9.71231 98.2728 8.45969C97.9421 7.20166 98.5927 5.94364 99.7259 5.64668C100.859 5.34432 102.052 6.12182 102.383 7.37444" fill="#F7AB82"/>
<path fill-rule="evenodd" clip-rule="evenodd" d="M102.383 7.37444C102.052 6.12182 100.859 5.34433 99.7261 5.64668C98.593 5.94364 97.9423 7.20167 98.2731 8.45969C98.6038 9.71232 99.7966 10.4844 100.93 10.1874C102.063 9.89049 102.714 8.62707 102.383 7.37444L102.394 7.36904C102.73 8.63247 102.074 9.90129 100.935 10.2036C99.7912 10.5006 98.5984 9.72311 98.2622 8.45969C97.9261 7.19627 98.5821 5.92744 99.7207 5.63049C100.865 5.32813 102.063 6.11102 102.394 7.36904" fill="#F7AB82"/>
</g>
</g>
<mask id="mask20_133_944" style="mask-type:luminance" maskUnits="userSpaceOnUse" x="98" y="7" width="6" height="4">
<path d="M98.0779 7.53625H103.033V10.2845H98.0779V7.53625Z" fill="white"/>
</mask>
<g mask="url(#mask20_133_944)">
<mask id="mask21_133_944" style="mask-type:luminance" maskUnits="userSpaceOnUse" x="96" y="7" width="8" height="5">
<path d="M101.336 11.7153C102.892 11.305 103.906 9.80941 103.906 8.13025V8.10325C103.917 9.79862 102.898 11.305 101.336 11.7153Z" fill="white"/>
</mask>
<g mask="url(#mask21_133_944)">
<path fill-rule="evenodd" clip-rule="evenodd" d="M102.394 7.36903C102.063 6.11101 100.865 5.32812 99.7207 5.63047C98.5821 5.92743 97.9261 7.19625 98.2622 8.45968C98.5984 9.7231 99.7912 10.5006 100.935 10.2036C102.074 9.90128 102.73 8.63246 102.394 7.36903H102.41C102.746 8.63785 102.085 9.91208 100.935 10.2144C99.7858 10.5168 98.5821 9.7339 98.246 8.46508C97.9098 7.19086 98.5713 5.91663 99.7207 5.61428C100.87 5.31192 102.074 6.10021 102.41 7.36903" fill="#F7AB82"/>
</g>
</g>
<mask id="mask22_133_944" style="mask-type:luminance" maskUnits="userSpaceOnUse" x="98" y="7" width="6" height="4">
<path d="M98.0779 7.53625H103.033V10.5814H98.0779V7.53625Z" fill="white"/>
</mask>
<g mask="url(#mask22_133_944)">
<mask id="mask23_133_944" style="mask-type:luminance" maskUnits="userSpaceOnUse" x="96" y="7" width="8" height="5">
<path d="M101.336 11.7153C102.892 11.305 103.906 9.80941 103.906 8.13025V8.10325C103.917 9.79862 102.898 11.305 101.336 11.7153Z" fill="white"/>
</mask>
<g mask="url(#mask23_133_944)">
<path fill-rule="evenodd" clip-rule="evenodd" d="M102.41 7.36889C102.074 6.10006 100.87 5.31177 99.7206 5.61413C98.5711 5.91649 97.9097 7.19071 98.2458 8.46493C98.582 9.73376 99.7856 10.5166 100.935 10.2143C102.084 9.91193 102.746 8.63771 102.41 7.36889L102.421 7.36349C102.762 8.64311 102.095 9.92813 100.94 10.2305C99.7856 10.5382 98.5711 9.74455 98.235 8.46493C97.8988 7.19071 98.5603 5.90569 99.7151 5.60333C100.87 5.29558 102.084 6.08387 102.421 7.36349" fill="#F7AB82"/>
<path fill-rule="evenodd" clip-rule="evenodd" d="M102.421 7.36349C102.084 6.08387 100.87 5.29558 99.7152 5.60333C98.5603 5.90569 97.8989 7.19071 98.235 8.46493C98.5712 9.74456 99.7856 10.5382 100.94 10.2305C102.095 9.92813 102.762 8.64311 102.421 7.36349L102.437 7.35809C102.773 8.64851 102.106 9.93893 100.946 10.2467C99.7802 10.5544 98.5603 9.75535 98.2187 8.47033C97.8826 7.18531 98.5495 5.89489 99.7097 5.58714C100.875 5.27938 102.095 6.07307 102.437 7.35809" fill="#F7AC82"/>
<path fill-rule="evenodd" clip-rule="evenodd" d="M102.437 7.35808C102.095 6.07305 100.875 5.27936 99.7098 5.58712C98.5495 5.89488 97.8826 7.1853 98.2188 8.47032C98.5604 9.75534 99.7803 10.5544 100.946 10.2467C102.106 9.93892 102.773 8.64849 102.437 7.35808H102.448C102.789 8.65389 102.122 9.94971 100.951 10.2629C99.7803 10.5706 98.5495 9.77154 98.208 8.47572C97.8664 7.1799 98.5333 5.87868 99.7098 5.57092C100.881 5.26317 102.106 6.06226 102.448 7.35808" fill="#F7AC82"/>
<path fill-rule="evenodd" clip-rule="evenodd" d="M102.447 7.35808C102.106 6.06226 100.881 5.26318 99.7095 5.57093C98.5329 5.87869 97.8661 7.17991 98.2076 8.47573C98.5492 9.77155 99.78 10.5706 100.951 10.2629C102.122 9.94972 102.789 8.6539 102.447 7.35808L102.464 7.35268C102.805 8.6539 102.133 9.96592 100.951 10.2737C99.7745 10.5868 98.5384 9.78234 98.1914 8.47573C97.8498 7.17451 98.5221 5.86789 99.704 5.55473C100.881 5.24698 102.117 6.05147 102.464 7.35268" fill="#F6AC82"/>
<path fill-rule="evenodd" clip-rule="evenodd" d="M102.464 7.35273C102.117 6.05151 100.881 5.24702 99.7044 5.55478C98.5224 5.86794 97.8501 7.17455 98.1917 8.47577C98.5387 9.78239 99.7748 10.5869 100.951 10.2737C102.133 9.96596 102.806 8.65395 102.464 7.35273L102.475 7.34733C102.822 8.66475 102.144 9.97676 100.957 10.2899C99.7694 10.6031 98.5278 9.79319 98.1808 8.48117C97.8338 7.16915 98.5116 5.85714 99.6989 5.54398C100.886 5.23082 102.128 6.04071 102.475 7.34733" fill="#F6AC82"/>
</g>
</g>
<mask id="mask24_133_944" style="mask-type:luminance" maskUnits="userSpaceOnUse" x="96" y="7" width="8" height="5">
<path d="M101.336 11.7153C102.892 11.305 103.906 9.80941 103.906 8.13025V8.10325C103.917 9.79862 102.898 11.305 101.336 11.7153Z" fill="white"/>
</mask>
<g mask="url(#mask24_133_944)">
<path fill-rule="evenodd" clip-rule="evenodd" d="M103.375 7.11534C102.882 5.2526 101.12 4.10256 99.4388 4.5507C97.7526 4.98804 96.7875 6.85618 97.2809 8.71892C97.7743 10.5763 99.5364 11.7263 101.217 11.2836C102.903 10.8408 103.868 8.97268 103.375 7.11534L103.386 7.10994C103.885 8.97808 102.914 10.857 101.223 11.2998C99.531 11.7425 97.7635 10.5925 97.2701 8.71892C96.7767 6.85078 97.7418 4.97724 99.4334 4.5345C101.125 4.08636 102.892 5.2418 103.386 7.10994" fill="#F3B587"/>
<path fill-rule="evenodd" clip-rule="evenodd" d="M103.386 7.10981C102.893 5.24167 101.125 4.08623 99.4334 4.53436C97.7418 4.9771 96.7767 6.85064 97.2701 8.71878C97.7635 10.5923 99.531 11.7424 101.223 11.2996C102.914 10.8569 103.885 8.97794 103.386 7.10981H103.402C103.896 8.98334 102.925 10.8677 101.228 11.3158C99.531 11.7586 97.7527 10.6031 97.2539 8.72418C96.7605 6.85064 97.731 4.9663 99.428 4.51817C101.125 4.07003 102.909 5.23087 103.402 7.10981" fill="#F3B587"/>
<path fill-rule="evenodd" clip-rule="evenodd" d="M103.402 7.10981C102.909 5.23087 101.125 4.07003 99.4279 4.51817C97.7309 4.96631 96.7604 6.85065 97.2538 8.72418C97.7526 10.6031 99.5309 11.7586 101.228 11.3158C102.925 10.8677 103.895 8.98335 103.402 7.10981L103.418 7.10441C103.917 8.98875 102.936 10.8839 101.233 11.332C99.5255 11.7802 97.7417 10.6139 97.2429 8.72958C96.7441 6.84525 97.72 4.95011 99.4225 4.50197C101.13 4.05384 102.914 5.22007 103.418 7.10441" fill="#F3B587"/>
<path fill-rule="evenodd" clip-rule="evenodd" d="M103.418 7.10442C102.914 5.22008 101.13 4.05385 99.4225 4.50198C97.7201 4.95012 96.7441 6.84525 97.2429 8.72959C97.7417 10.6139 99.5255 11.7802 101.233 11.332C102.936 10.8839 103.917 8.98875 103.418 7.10442L103.429 7.09902C103.928 8.99415 102.947 10.8947 101.233 11.3428C99.5201 11.7964 97.7309 10.6247 97.2267 8.72959C96.7279 6.83986 97.7092 4.93932 99.4225 4.48578C101.136 4.03765 102.925 5.20928 103.429 7.09902" fill="#F3B588"/>
<path fill-rule="evenodd" clip-rule="evenodd" d="M103.429 7.09909C102.925 5.20936 101.136 4.03772 99.4225 4.48586C97.7092 4.9394 96.7279 6.83993 97.2267 8.72967C97.7309 10.6248 99.5201 11.7964 101.233 11.3429C102.947 10.8948 103.928 8.99423 103.429 7.09909H103.44C103.944 8.99963 102.958 10.9056 101.239 11.3591C99.5201 11.8126 97.7201 10.6356 97.2158 8.73507C96.7116 6.83453 97.6984 4.9232 99.4171 4.47506C101.136 4.02152 102.936 5.19316 103.44 7.09909" fill="#F3B588"/>
</g>
<mask id="mask25_133_944" style="mask-type:luminance" maskUnits="userSpaceOnUse" x="96" y="7" width="8" height="5">
<path d="M101.407 11.5425C102.963 11.1322 103.977 9.63656 103.977 7.9574V7.9304C103.988 9.62576 102.968 11.1322 101.407 11.5425Z" fill="white"/>
</mask>
<g mask="url(#mask25_133_944)">
<path fill-rule="evenodd" clip-rule="evenodd" d="M103.684 6.87752C103.153 4.869 101.255 3.62717 99.4388 4.10771C97.6225 4.58284 96.5815 6.60216 97.1129 8.61068C97.6442 10.6192 99.5472 11.8556 101.364 11.3805C103.174 10.9 104.215 8.88604 103.684 6.87752L103.7 6.87212C104.237 8.89144 103.185 10.9162 101.364 11.3967C99.5418 11.8772 97.6279 10.63 97.0966 8.61068C96.5652 6.59676 97.6117 4.57204 99.4334 4.09151C101.255 3.61098 103.169 4.8582 103.7 6.87212" fill="#F2B789"/>
<path fill-rule="evenodd" clip-rule="evenodd" d="M103.7 6.87211C103.169 4.85819 101.255 3.61096 99.4334 4.0915C97.6116 4.57203 96.5652 6.59675 97.0966 8.61067C97.6279 10.63 99.5418 11.8772 101.364 11.3967C103.185 10.9161 104.237 8.89143 103.7 6.87211H103.717C104.248 8.89683 103.202 10.9269 101.369 11.4075C99.5364 11.888 97.617 10.6408 97.0857 8.61607C96.549 6.59135 97.5954 4.56123 99.4279 4.0753C101.261 3.59477 103.18 4.84739 103.717 6.87211" fill="#F2B789"/>
<path fill-rule="evenodd" clip-rule="evenodd" d="M103.717 6.87216C103.18 4.84744 101.261 3.59481 99.4279 4.07535C97.5954 4.56128 96.549 6.5914 97.0857 8.61611C97.6171 10.6408 99.5364 11.8881 101.369 11.4075C103.202 10.927 104.248 8.89687 103.717 6.87216L103.727 6.86676C104.264 8.90227 103.212 10.9378 101.374 11.4237C99.5364 11.9097 97.6062 10.6516 97.0695 8.61611C96.5327 6.586 97.5845 4.54508 99.4279 4.06455C101.261 3.57862 103.191 4.83664 103.727 6.86676" fill="#F2B789"/>
<path fill-rule="evenodd" clip-rule="evenodd" d="M103.727 6.86681C103.191 4.83669 101.261 3.57867 99.428 4.0646C97.5846 4.54513 96.5327 6.58605 97.0695 8.61616C97.6063 10.6517 99.5364 11.9097 101.374 11.4238C103.212 10.9378 104.264 8.90232 103.727 6.86681L103.738 6.86141C104.28 8.90232 103.223 10.954 101.374 11.44C99.531 11.9259 97.5954 10.6625 97.0586 8.62156C96.5165 6.58065 97.5737 4.53433 99.4226 4.0484C101.266 3.56247 103.202 4.82049 103.738 6.86141" fill="#F2B789"/>
<path fill-rule="evenodd" clip-rule="evenodd" d="M103.738 6.86128C103.201 4.82036 101.266 3.56234 99.4225 4.04827C97.5736 4.5342 96.5164 6.58052 97.0586 8.62143C97.5953 10.6623 99.5309 11.9258 101.374 11.4398C103.223 10.9539 104.28 8.90219 103.738 6.86128H103.754C104.297 8.90759 103.234 10.9647 101.38 11.4506C99.5309 11.942 97.5845 10.6785 97.0423 8.62683C96.5001 6.57511 97.5628 4.5234 99.4171 4.03207C101.271 3.54614 103.212 4.80956 103.754 6.86128" fill="#F2B889"/>
<path fill-rule="evenodd" clip-rule="evenodd" d="M103.755 6.8614C103.212 4.80969 101.271 3.54627 99.4171 4.0322C97.5628 4.52353 96.5002 6.57524 97.0423 8.62696C97.5845 10.6787 99.5309 11.9421 101.38 11.4508C103.234 10.9648 104.297 8.90772 103.755 6.8614L103.765 6.85601C104.313 8.91312 103.245 10.981 101.385 11.467C99.5255 11.9583 97.5737 10.6895 97.0315 8.62696C96.4839 6.56984 97.552 4.50733 99.4117 4.016C101.271 3.53007 103.223 4.79889 103.765 6.85601" fill="#F2B889"/>
</g>
</svg>
